<svg data-v-423bf9ae="" xmlns="http://www.w3.org/2000/svg" viewBox="0 0 356.74953830840616 163" class="iconAbove"><!----><!----><!----><g data-v-423bf9ae="" id="e994a588-27da-4710-9c6e-fda04e267acd" fill="black" transform="matrix(4.452690040922712,0,0,4.452690040922712,-0.8905444468473434,103.80148167621448)"><path d="M2.55 1.34L5.15 1.34L5.15 8.01L5.15 8.01Q5.15 8.88 4.84 9.39L4.84 9.39L4.84 9.39Q4.52 9.91 4.06 10.19L4.06 10.19L4.06 10.19Q3.60 10.47 3.09 10.56L3.09 10.56L3.09 10.56Q2.59 10.65 2.21 10.65L2.21 10.65L2.21 10.65Q1.72 10.65 1.36 10.62L1.36 10.62L1.36 10.62Q0.99 10.58 0.73 10.54L0.73 10.54L0.73 10.54Q0.42 10.49 0.20 10.42L0.20 10.42L0.20 8.26L0.20 8.26Q0.20 8.26 0.37 8.31L0.37 8.31L0.37 8.31Q0.55 8.36 0.81 8.41L0.81 8.41L0.81 8.41Q1.08 8.46 1.38 8.48L1.38 8.48L1.38 8.48Q1.68 8.50 1.94 8.44L1.94 8.44L1.94 8.44Q2.20 8.39 2.37 8.22L2.37 8.22L2.37 8.22Q2.55 8.05 2.55 7.71L2.55 7.71L2.55 1.34ZM10.74 3.04L10.74 3.04L10.74 3.04Q11.37 3.04 12.12 3.21L12.12 3.21L12.12 3.21Q12.88 3.39 13.53 3.83L13.53 3.83L13.53 3.83Q14.18 4.27 14.62 5.01L14.62 5.01L14.62 5.01Q15.05 5.75 15.05 6.89L15.05 6.89L15.05 6.89Q15.05 8.02 14.62 8.75L14.62 8.75L14.62 8.75Q14.18 9.48 13.53 9.90L13.53 9.90L13.53 9.90Q12.88 10.32 12.12 10.49L12.12 10.49L12.12 10.49Q11.37 10.65 10.74 10.65L10.74 10.65L10.74 10.65Q10.11 10.65 9.37 10.49L9.37 10.49L9.37 10.49Q8.62 10.32 7.99 9.90L7.99 9.90L7.99 9.90Q7.35 9.48 6.92 8.75L6.92 8.75L6.92 8.75Q6.48 8.02 6.48 6.89L6.48 6.89L6.48 6.89Q6.48 6.13 6.69 5.56L6.69 5.56L6.69 5.56Q6.89 4.98 7.22 4.56L7.22 4.56L7.22 4.56Q7.55 4.13 7.99 3.84L7.99 3.84L7.99 3.84Q8.43 3.54 8.90 3.37L8.90 3.37L8.90 3.37Q9.37 3.19 9.84 3.12L9.84 3.12L9.84 3.12Q10.32 3.04 10.74 3.04ZM10.74 8.90L10.74 8.90L10.74 8.90Q11.51 8.90 11.96 8.46L11.96 8.46L11.96 8.46Q12.40 8.01 12.40 6.89L12.40 6.89L12.40 6.89Q12.40 5.75 11.96 5.27L11.96 5.27L11.96 5.27Q11.52 4.79 10.74 4.79L10.74 4.79L10.74 4.79Q9.95 4.79 9.54 5.27L9.54 5.27L9.54 5.27Q9.13 5.75 9.13 6.89L9.13 6.89L9.13 6.89Q9.13 8.01 9.54 8.46L9.54 8.46L9.54 8.46Q9.95 8.90 10.74 8.90ZM19.19 3.02L19.19 3.02L19.19 3.02Q19.87 3.02 20.56 3.21L20.56 3.21L20.56 3.21Q21.25 3.39 21.92 3.81L21.92 3.81L21.07 5.21L21.07 5.21Q20.96 5.14 20.72 5.03L20.72 5.03L20.72 5.03Q20.48 4.93 20.20 4.84L20.20 4.84L20.20 4.84Q19.91 4.75 19.59 4.69L19.59 4.69L19.59 4.69Q19.28 4.63 19.03 4.66L19.03 4.66L19.03 4.66Q18.77 4.69 18.61 4.82L18.61 4.82L18.61 4.82Q18.45 4.94 18.45 5.22L18.45 5.22L18.45 5.22Q18.45 5.43 18.78 5.57L18.78 5.57L18.78 5.57Q19.11 5.71 19.53 5.85L19.53 5.85L19.53 5.85Q19.95 5.98 20.40 6.16L20.40 6.16L20.40 6.16Q20.85 6.34 21.22 6.62L21.22 6.62L21.22 6.62Q21.59 6.90 21.83 7.31L21.83 7.31L21.83 7.31Q22.06 7.73 22.06 8.33L22.06 8.33L22.06 8.33Q22.06 8.95 21.82 9.39L21.82 9.39L21.82 9.39Q21.57 9.83 21.17 10.11L21.17 10.11L21.17 10.11Q20.76 10.39 20.22 10.53L20.22 10.53L20.22 10.53Q19.67 10.67 19.08 10.67L19.08 10.67L19.08 10.67Q18.27 10.67 17.42 10.44L17.42 10.44L17.42 10.44Q16.56 10.22 15.89 9.65L15.89 9.65L16.76 8.16L16.76 8.16Q16.91 8.33 17.18 8.48L17.18 8.48L17.18 8.48Q17.46 8.64 17.77 8.75L17.77 8.75L17.77 8.75Q18.09 8.86 18.42 8.92L18.42 8.92L18.42 8.92Q18.76 8.97 19.03 8.95L19.03 8.95L19.03 8.95Q19.29 8.92 19.47 8.81L19.47 8.81L19.47 8.81Q19.64 8.69 19.64 8.46L19.64 8.46L19.64 8.46Q19.64 8.13 19.39 7.94L19.39 7.94L19.39 7.94Q19.14 7.74 18.76 7.59L18.76 7.59L18.76 7.59Q18.38 7.45 17.93 7.31L17.93 7.31L17.93 7.31Q17.49 7.17 17.11 6.93L17.11 6.93L17.11 6.93Q16.73 6.69 16.48 6.31L16.48 6.31L16.48 6.31Q16.23 5.94 16.23 5.33L16.23 5.33L16.23 5.33Q16.23 4.73 16.48 4.30L16.48 4.30L16.48 4.30Q16.73 3.86 17.15 3.58L17.15 3.58L17.15 3.58Q17.57 3.29 18.10 3.16L18.10 3.16L18.10 3.16Q18.63 3.02 19.19 3.02ZM29.51 2.25L28.76 4.16L28.76 4.16Q28.17 3.75 27.57 3.50L27.57 3.50L27.57 3.50Q26.96 3.25 26.47 3.25L26.47 3.25L26.47 3.25Q26.03 3.25 25.82 3.35L25.82 3.35L25.82 3.35Q25.61 3.46 25.61 3.82L25.61 3.82L25.61 3.82Q25.61 4.23 25.97 4.44L25.97 4.44L25.97 4.44Q26.33 4.65 26.92 4.84L26.92 4.84L26.92 4.84Q27.41 5.01 27.92 5.21L27.92 5.21L27.92 5.21Q28.42 5.42 28.83 5.75L28.83 5.75L28.83 5.75Q29.23 6.08 29.48 6.58L29.48 6.58L29.48 6.58Q29.74 7.08 29.74 7.84L29.74 7.84L29.74 7.84Q29.74 8.57 29.46 9.10L29.46 9.10L29.46 9.10Q29.18 9.63 28.71 9.97L28.71 9.97L28.71 9.97Q28.25 10.32 27.66 10.49L27.66 10.49L27.66 10.49Q27.06 10.65 26.42 10.65L26.42 10.65L26.42 10.65Q25.51 10.65 24.60 10.27L24.60 10.27L24.60 10.27Q23.69 9.88 22.99 9.13L22.99 9.13L23.80 7.24L23.80 7.24Q24.44 7.90 25.11 8.26L25.11 8.26L25.11 8.26Q25.77 8.62 26.38 8.62L26.38 8.62L26.38 8.62Q26.88 8.62 27.20 8.50L27.20 8.50L27.20 8.50Q27.52 8.37 27.54 7.97L27.54 7.97L27.54 7.97Q27.54 7.73 27.43 7.57L27.43 7.57L27.43 7.57Q27.33 7.41 27.14 7.30L27.14 7.30L27.14 7.30Q26.95 7.20 26.68 7.11L26.68 7.11L26.68 7.11Q26.42 7.03 26.12 6.93L26.12 6.93L26.12 6.93Q25.63 6.76 25.15 6.55L25.15 6.55L25.15 6.55Q24.67 6.34 24.28 6.00L24.28 6.00L24.28 6.00Q23.88 5.66 23.65 5.16L23.65 5.16L23.65 5.16Q23.41 4.66 23.41 3.93L23.41 3.93L23.41 3.93Q23.41 3.21 23.67 2.69L23.67 2.69L23.67 2.69Q23.94 2.17 24.37 1.84L24.37 1.84L24.37 1.84Q24.81 1.51 25.37 1.36L25.37 1.36L25.37 1.36Q25.94 1.20 26.54 1.20L26.54 1.20L26.54 1.20Q27.31 1.20 28.08 1.48L28.08 1.48L28.08 1.48Q28.85 1.76 29.51 2.25L29.51 2.25ZM35.14 10.65L35.14 10.65L35.14 10.65Q33.81 10.65 32.94 10.31L32.94 10.31L32.94 10.31Q32.07 9.97 31.56 9.43L31.56 9.43L31.56 9.43Q31.05 8.89 30.85 8.21L30.85 8.21L30.85 8.21Q30.65 7.53 30.65 6.86L30.65 6.86L30.65 6.86Q30.65 6.19 30.85 5.51L30.85 5.51L30.85 5.51Q31.05 4.83 31.51 4.28L31.51 4.28L31.51 4.28Q31.96 3.72 32.70 3.38L32.70 3.38L32.70 3.38Q33.43 3.04 34.48 3.04L34.48 3.04L34.48 3.04Q35.56 3.04 36.29 3.38L36.29 3.38L36.29 3.38Q37.02 3.72 37.45 4.28L37.45 4.28L37.45 4.28Q37.88 4.83 38.07 5.51L38.07 5.51L38.07 5.51Q38.25 6.19 38.25 6.86L38.25 6.86L38.25 7.56L33.21 7.56L33.21 7.56Q33.22 7.73 33.34 7.97L33.34 7.97L33.34 7.97Q33.46 8.22 33.71 8.44L33.71 8.44L33.71 8.44Q33.96 8.65 34.36 8.81L34.36 8.81L34.36 8.81Q34.76 8.96 35.34 8.96L35.34 8.96L35.34 8.96Q35.87 8.96 36.31 8.87L36.31 8.87L36.31 8.87Q36.75 8.78 37.06 8.67L37.06 8.67L37.06 8.67Q37.42 8.53 37.69 8.36L37.69 8.36L37.69 10.07L37.69 10.07Q37.69 10.08 37.47 10.17L37.47 10.17L37.47 10.17Q37.25 10.26 36.90 10.37L36.90 10.37L36.90 10.37Q36.54 10.47 36.08 10.56L36.08 10.56L36.08 10.56Q35.62 10.65 35.14 10.65ZM33.21 6.13L35.98 6.13L35.98 6.13Q35.98 5.89 35.91 5.63L35.91 5.63L35.91 5.63Q35.84 5.36 35.67 5.14L35.67 5.14L35.67 5.14Q35.50 4.91 35.24 4.77L35.24 4.77L35.24 4.77Q34.97 4.62 34.58 4.62L34.58 4.62L34.58 4.62Q34.19 4.62 33.92 4.77L33.92 4.77L33.92 4.77Q33.66 4.91 33.50 5.14L33.50 5.14L33.50 5.14Q33.35 5.36 33.28 5.63L33.28 5.63L33.28 5.63Q33.21 5.89 33.21 6.13L33.21 6.13ZM42.99 3.05L42.99 3.05L42.99 3.05Q43.43 3.05 43.86 3.10L43.86 3.10L43.86 3.10Q44.30 3.15 44.66 3.21L44.66 3.21L44.66 3.21Q45.08 3.28 45.47 3.36L45.47 3.36L45.47 5.31L45.47 5.31Q45.16 5.26 44.77 5.19L44.77 5.19L44.77 5.19Q44.38 5.12 43.98 5.10L43.98 5.10L43.98 5.10Q43.58 5.07 43.20 5.11L43.20 5.11L43.20 5.11Q42.83 5.15 42.53 5.35L42.53 5.35L42.53 5.35Q42.24 5.54 42.06 5.91L42.06 5.91L42.06 5.91Q41.87 6.27 41.87 6.89L41.87 6.89L41.87 6.89Q41.87 7.53 42.05 7.92L42.05 7.92L42.05 7.92Q42.22 8.32 42.51 8.52L42.51 8.52L42.51 8.52Q42.80 8.72 43.18 8.77L43.18 8.77L43.18 8.77Q43.55 8.82 43.95 8.79L43.95 8.79L43.95 8.79Q44.35 8.75 44.74 8.66L44.74 8.66L44.74 8.66Q45.14 8.57 45.47 8.50L45.47 8.50L45.47 10.30L45.47 10.30Q45.08 10.42 44.66 10.49L44.66 10.49L44.66 10.49Q44.30 10.56 43.85 10.61L43.85 10.61L43.85 10.61Q43.41 10.65 42.98 10.65L42.98 10.65L42.98 10.65Q42.43 10.65 41.78 10.49L41.78 10.49L41.78 10.49Q41.12 10.32 40.55 9.90L40.55 9.90L40.55 9.90Q39.98 9.48 39.61 8.75L39.61 8.75L39.61 8.75Q39.23 8.02 39.23 6.89L39.23 6.89L39.23 6.89Q39.23 5.75 39.61 5.02L39.61 5.02L39.61 5.02Q39.98 4.28 40.55 3.84L40.55 3.84L40.55 3.84Q41.12 3.40 41.78 3.23L41.78 3.23L41.78 3.23Q42.43 3.05 42.99 3.05ZM49.63 10.65L49.63 10.65L49.63 10.65Q49.07 10.65 48.52 10.54L48.52 10.54L48.52 10.54Q47.96 10.43 47.52 10.08L47.52 10.08L47.52 10.08Q47.08 9.73 46.80 9.09L46.80 9.09L46.80 9.09Q46.52 8.44 46.52 7.36L46.52 7.36L46.52 3.22L48.86 3.22L48.86 6.52L48.86 6.52Q48.86 7.56 49.20 8.10L49.20 8.10L49.20 8.10Q49.53 8.64 50.16 8.64L50.16 8.64L50.16 8.64Q50.61 8.64 50.92 8.44L50.92 8.44L50.92 8.44Q51.23 8.25 51.42 7.90L51.42 7.90L51.42 7.90Q51.60 7.56 51.69 7.08L51.69 7.08L51.69 7.08Q51.77 6.61 51.77 6.05L51.77 6.05L51.77 3.22L54.29 3.22L54.29 10.50L52.40 10.50L51.98 9.13L51.98 9.13Q51.98 9.13 51.86 9.37L51.86 9.37L51.86 9.37Q51.73 9.60 51.45 9.89L51.45 9.89L51.45 9.89Q51.17 10.18 50.72 10.42L50.72 10.42L50.72 10.42Q50.27 10.65 49.63 10.65ZM61.05 3.04L60.93 5.22L60.93 5.22Q60.12 5.04 59.61 5.24L59.61 5.24L59.61 5.24Q59.11 5.43 58.82 5.81L58.82 5.81L58.82 5.81Q58.53 6.19 58.43 6.64L58.43 6.64L58.43 6.64Q58.32 7.10 58.32 7.41L58.32 7.41L58.32 10.50L55.83 10.50L55.83 3.22L57.75 3.22L58.13 4.55L58.13 4.55Q58.13 4.55 58.25 4.31L58.25 4.31L58.25 4.31Q58.38 4.07 58.72 3.79L58.72 3.79L58.72 3.79Q59.05 3.51 59.62 3.28L59.62 3.28L59.62 3.28Q60.19 3.04 61.05 3.04L61.05 3.04ZM64.69 10.50L62.17 10.50L62.17 3.22L64.69 3.22L64.69 10.50ZM64.68 1.04L64.68 1.04L64.68 1.04Q64.68 1.30 64.58 1.53L64.58 1.53L64.58 1.53Q64.48 1.76 64.32 1.93L64.32 1.93L64.32 1.93Q64.15 2.10 63.92 2.20L63.92 2.20L63.92 2.20Q63.70 2.30 63.45 2.30L63.45 2.30L63.45 2.30Q62.92 2.30 62.55 1.93L62.55 1.93L62.55 1.93Q62.19 1.57 62.19 1.04L62.19 1.04L62.19 1.04Q62.19 0.78 62.29 0.56L62.29 0.56L62.29 0.56Q62.38 0.34 62.55 0.17L62.55 0.17L62.55 0.17Q62.72 0.01 62.95-0.08L62.95-0.08L62.95-0.08Q63.18-0.18 63.45-0.18L63.45-0.18L63.45-0.18Q63.95-0.18 64.32 0.17L64.32 0.17L64.32 0.17Q64.68 0.53 64.68 1.04ZM70.49 8.97L70.49 8.97L70.49 8.97Q70.69 8.97 70.88 8.96L70.88 8.96L70.88 8.96Q71.08 8.95 71.23 8.92L71.23 8.92L71.23 8.92Q71.41 8.89 71.58 8.85L71.58 8.85L71.55 10.43L71.55 10.43Q71.32 10.49 71.05 10.54L71.05 10.54L71.05 10.54Q70.81 10.58 70.50 10.62L70.50 10.62L70.50 10.62Q70.18 10.65 69.82 10.65L69.82 10.65L69.82 10.65Q69.12 10.61 68.56 10.36L68.56 10.36L68.56 10.36Q68.32 10.25 68.10 10.08L68.10 10.08L68.10 10.08Q67.87 9.91 67.70 9.66L67.70 9.66L67.70 9.66Q67.52 9.41 67.42 9.08L67.42 9.08L67.42 9.08Q67.31 8.75 67.31 8.30L67.31 8.30L67.31 5.53L65.88 5.53L65.88 3.75L67.35 3.75L67.80 1.46L69.82 1.46L69.82 3.75L71.61 3.75L71.61 5.53L69.85 5.53L69.85 8.33L69.85 8.33Q69.87 8.68 70.03 8.83L70.03 8.83L70.03 8.83Q70.20 8.97 70.49 8.97ZM77.78 3.22L80.32 3.22L80.32 3.22Q79.56 5.21 78.99 6.69L78.99 6.69L78.99 6.69Q78.41 8.18 77.95 9.25L77.95 9.25L77.95 9.25Q77.49 10.32 77.13 11.03L77.13 11.03L77.13 11.03Q76.78 11.73 76.44 12.17L76.44 12.17L76.44 12.17Q76.10 12.61 75.78 12.84L75.78 12.84L75.78 12.84Q75.46 13.06 75.08 13.17L75.08 13.17L75.08 13.17Q74.84 13.24 74.50 13.27L74.50 13.27L74.50 13.27Q74.16 13.29 73.83 13.29L73.83 13.29L73.83 13.29Q73.50 13.30 73.28 13.29L73.28 13.29L73.28 13.29Q73.05 13.29 73.05 13.29L73.05 13.29L73.07 11.37L73.85 11.35L73.85 11.35Q74.24 11.35 74.47 11.20L74.47 11.20L74.47 11.20Q74.69 11.05 74.80 10.85L74.80 10.85L74.80 10.85Q74.94 10.63 74.97 10.35L74.97 10.35L72.00 3.22L74.68 3.22L76.26 7.99L77.78 3.22Z"></path></g><!----><g data-v-423bf9ae="" id="e76b3ee8-7c72-4c52-b390-4164326f77e1" transform="matrix(1.5254237288135593,0,0,1.5254237288135593,133.4862430621002,-0.26271186440677496)" stroke="none" fill="black"><path d="M32.11 51.797a.492.492 0 1 0 .504.845c7.745-4.617 17.556-15.325 20.316-40.12a2.402 2.402 0 0 0-1.628-2.56c-3.604-1.216-12.65-4.121-18.79-4.838a.492.492 0 0 0-.114.976c6.048.707 15.015 3.588 18.589 4.794.644.217 1.042.842.966 1.518-2.715 24.394-12.289 34.882-19.842 39.385z"></path><path d="M43.478 48.985a45.835 45.835 0 0 0 1.263-1.648c.299-.406.595-.816.885-1.238l.1-.149a51.742 51.742 0 0 0 1.95-3.094 56.078 56.078 0 0 0 .872-1.555c.101-.184.199-.37.297-.554.24-.457.48-.913.713-1.383.303-.61.594-1.224.876-1.84.12-.265.237-.535.354-.804.281-.636.552-1.275.813-1.917l.12-.293c3.628-9.05 5.275-18.446 6.015-25.292a2.406 2.406 0 0 0-1.625-2.552C50.95 4.917 38.658.984 31.3.545c-.115-.007-.214-.006-.326-.012C30.655.52 30.328.5 30.03.5L30 .501h-.029c-.3 0-.628.018-.95.032-.11.006-.208.005-.322.012C21.343.984 9.05 4.917 3.89 6.667a2.405 2.405 0 0 0-1.625 2.55c.74 6.848 2.387 16.246 6.017 25.297.037.095.077.187.115.28.262.648.536 1.293.82 1.935.115.264.23.53.348.79.283.62.576 1.236.88 1.849.23.464.467.915.705 1.366a59.236 59.236 0 0 0 1.114 2.022l.075.125a51.735 51.735 0 0 0 1.92 3.044c.04.06.078.12.119.179.286.416.58.822.875 1.224a47.237 47.237 0 0 0 1.267 1.653c.276.344.562.68.85 1.016.171.2.339.407.513.603a41.762 41.762 0 0 0 1.576 1.679l.007.007c2.703 2.727 5.811 5.1 9.396 6.944.347.18.728.27 1.111.27.01 0 .019-.003.028-.003.01 0 .02.003.029.003.382 0 .762-.09 1.108-.269 3.583-1.843 6.69-4.214 9.392-6.94l.015-.014a41.71 41.71 0 0 0 1.571-1.674c.18-.201.351-.413.527-.619.282-.33.564-.661.836-1zM4.204 7.598a204.576 204.576 0 0 1 11.09-3.407c.014-.003.029.001.044-.003C21.857 2.398 26.789 1.49 30 1.485c3.213.005 8.144.914 14.662 2.703.015.004.03 0 .044.003 4.748 1.3 9.071 2.723 11.089 3.406a1.43 1.43 0 0 1 .964 1.515c-.5 4.616-1.417 10.408-3.081 16.457-.019.034-.042.065-.052.104a80.587 80.587 0 0 1-2.833 8.513l-.01.025c-.306.766-.625 1.51-.95 2.245-.073.166-.143.333-.219.498a62.182 62.182 0 0 1-.936 1.973c-.184.37-.376.738-.568 1.105a57.22 57.22 0 0 1-1.137 2.082c-.084.145-.17.285-.255.428a51.787 51.787 0 0 1-1.565 2.495c-.108.16-.213.325-.322.484-.254.37-.516.732-.78 1.094a45.01 45.01 0 0 1-1.263 1.658c-.314.392-.634.774-.957 1.15-.13.15-.255.306-.388.456-3.165 3.567-6.77 6.4-10.805 8.477a1.46 1.46 0 0 1-.64.158 1.458 1.458 0 0 1-.636-.157c-4.037-2.078-7.642-4.912-10.808-8.48-.127-.145-.248-.294-.373-.44-.329-.381-.653-.77-.973-1.167a45.077 45.077 0 0 1-.692-.892c-.193-.253-.383-.51-.572-.77-.261-.358-.52-.717-.772-1.083-.115-.167-.226-.341-.34-.511a51.828 51.828 0 0 1-1.536-2.447c-.09-.153-.183-.303-.272-.458a56.344 56.344 0 0 1-1.139-2.085c-.19-.364-.38-.727-.562-1.094a62.168 62.168 0 0 1-.94-1.98c-.073-.161-.14-.323-.212-.485a67.394 67.394 0 0 1-.963-2.276 80.572 80.572 0 0 1-2.834-8.516c-.01-.039-.033-.07-.052-.104-1.664-6.05-2.581-11.841-3.08-16.457a1.428 1.428 0 0 1 .962-1.514z"></path><path d="M27.386 52.642c.079.047.165.07.252.07.09 0 .175-.029.252-.076a1.13 1.13 0 0 0 .445-.13c.361-.203.577-.571.577-.987L28.905 6.29A1.16 1.16 0 0 0 27.6 5.12l-.061.007c-.017 0-.032-.006-.05-.003-6.14.717-15.186 3.622-18.79 4.839A2.401 2.401 0 0 0 7.07 12.52c2.76 24.796 12.57 35.504 20.316 40.121zM9.013 10.894c1.972-.665 5.586-1.84 9.444-2.878.025-.003.049.002.074-.005 3.728-1 6.816-1.644 9.182-1.915a.18.18 0 0 1 .147.041c.04.036.062.09.062.153l.007 45.23a.14.14 0 0 1-.074.127.16.16 0 0 1-.166-.004C19.672 46.75 13.902 37.954 10.537 25.5a.474.474 0 0 0-.15-.23c-1-3.789-1.805-8.05-2.34-12.86-.076-.675.322-1.3.966-1.517z"></path></g><!----></svg>