<svg data-v-423bf9ae="" xmlns="http://www.w3.org/2000/svg" viewBox="0 0 381 90" class="iconLeft"><!----><!----><!----><g data-v-423bf9ae="" id="3e01092b-751b-4df3-b843-2d5ce7056b2b" fill="white" transform="matrix(4.958677529621045,0,0,4.958677529621045,114.27522106793427,-7.264461926721587)"><path d="M1.46 14.20L1.46 14.20Q0.63 14.20 0.22 13.83L0.22 13.83L0.22 13.83Q-0.18 13.45-0.18 12.84L-0.18 12.84L-0.18 12.84Q-0.18 12.39 0.04 12.07L0.04 12.07L0.04 12.07Q0.21 11.82 0.46 11.63L0.46 11.63L0.46 11.63Q0.71 11.44 0.99 11.44L0.99 11.44L0.99 11.44Q1.25 11.44 1.39 11.59L1.39 11.59L1.39 11.59Q1.53 11.73 1.53 11.98L1.53 11.98L1.53 11.98Q1.53 12.36 1.29 12.64L1.29 12.64L1.29 12.64Q1.06 12.92 0.71 12.92L0.71 12.92L0.71 12.92Q0.64 12.92 0.57 13.01L0.57 13.01L0.57 13.01Q0.49 13.09 0.46 13.19L0.46 13.19L0.46 13.19Q0.41 13.43 0.59 13.63L0.59 13.63L0.59 13.63Q0.78 13.83 1.26 13.83L1.26 13.83L1.26 13.83Q1.90 13.83 2.30 13.47L2.30 13.47L2.30 13.47Q2.70 13.10 2.92 12.54L2.92 12.54L2.92 12.54Q3.14 11.97 3.33 11.07L3.33 11.07L4.66 5.22L4.66 5.17L4.66 5.17Q4.66 5.03 4.58 4.96L4.58 4.96L4.58 4.96Q4.51 4.89 4.38 4.89L4.38 4.89L3.82 4.89L3.82 4.89Q3.70 4.89 3.70 4.72L3.70 4.72L3.70 4.72Q3.70 4.49 3.92 4.49L3.92 4.49L7.04 4.49L7.04 4.49Q7.21 4.49 7.21 4.62L7.21 4.62L7.21 4.62Q7.21 4.72 7.13 4.80L7.13 4.80L7.13 4.80Q7.06 4.89 6.96 4.89L6.96 4.89L6.40 4.89L6.40 4.89Q6.24 4.89 6.11 4.98L6.11 4.98L6.11 4.98Q5.98 5.08 5.95 5.22L5.95 5.22L4.56 11.27L4.56 11.27Q4.35 12.26 3.64 13.23L3.64 13.23L3.64 13.23Q2.93 14.20 1.46 14.20L1.46 14.20ZM8.29 14.14L8.29 14.14Q7.43 14.14 6.91 13.53L6.91 13.53L6.91 13.53Q6.38 12.92 6.38 11.97L6.38 11.97L6.38 11.97Q6.38 11.06 6.85 10.19L6.85 10.19L6.85 10.19Q7.32 9.32 8.08 8.78L8.08 8.78L8.08 8.78Q8.83 8.23 9.63 8.23L9.63 8.23L9.63 8.23Q10.47 8.23 10.97 8.85L10.97 8.85L10.97 8.85Q11.47 9.46 11.47 10.42L11.47 10.42L11.47 10.42Q11.47 11.34 11.01 12.20L11.01 12.20L11.01 12.20Q10.56 13.06 9.82 13.60L9.82 13.60L9.82 13.60Q9.09 14.14 8.29 14.14L8.29 14.14ZM8.33 13.89L8.33 13.89Q8.95 13.89 9.43 13.24L9.43 13.24L9.43 13.24Q9.91 12.59 10.18 11.64L10.18 11.64L10.18 11.64Q10.44 10.70 10.44 9.91L10.44 9.91L10.44 9.91Q10.44 9.24 10.22 8.87L10.22 8.87L10.22 8.87Q10.00 8.50 9.56 8.50L9.56 8.50L9.56 8.50Q8.96 8.50 8.47 9.16L8.47 9.16L8.47 9.16Q7.98 9.83 7.71 10.77L7.71 10.77L7.71 10.77Q7.43 11.72 7.43 12.49L7.43 12.49L7.43 12.49Q7.43 13.16 7.67 13.52L7.67 13.52L7.67 13.52Q7.90 13.89 8.33 13.89L8.33 13.89ZM13.61 14.14L13.61 14.14Q13.01 14.14 12.52 13.83L12.52 13.83L12.52 13.83Q12.03 13.51 12.03 13.02L12.03 13.02L12.03 13.02Q12.03 12.80 12.14 12.68L12.14 12.68L12.14 12.68Q12.25 12.56 12.43 12.56L12.43 12.56L12.43 12.56Q12.60 12.56 12.72 12.65L12.72 12.65L12.72 12.65Q12.84 12.74 12.84 12.92L12.84 12.92L12.84 12.92Q12.84 13.02 12.78 13.17L12.78 13.17L12.78 13.17Q12.71 13.33 12.71 13.41L12.71 13.41L12.71 13.41Q12.71 13.64 12.99 13.74L12.99 13.74L12.99 13.74Q13.26 13.85 13.61 13.85L13.61 13.85L13.61 13.85Q14.22 13.85 14.73 13.51L14.73 13.51L14.73 13.51Q15.23 13.17 15.23 12.54L15.23 12.54L15.23 12.54Q15.23 12.07 14.95 11.85L14.95 11.85L14.95 11.85Q14.66 11.63 14.06 11.42L14.06 11.42L14.06 11.42Q13.64 11.28 13.38 11.16L13.38 11.16L13.38 11.16Q13.12 11.03 12.94 10.78L12.94 10.78L12.94 10.78Q12.77 10.53 12.77 10.14L12.77 10.14L12.77 10.14Q12.77 9.62 13.06 9.18L13.06 9.18L13.06 9.18Q13.36 8.75 13.82 8.49L13.82 8.49L13.82 8.49Q14.28 8.23 14.77 8.23L14.77 8.23L14.77 8.23Q15.33 8.23 15.79 8.55L15.79 8.55L15.79 8.55Q16.24 8.88 16.24 9.35L16.24 9.35L16.24 9.35Q16.24 9.59 16.13 9.71L16.13 9.71L16.13 9.71Q16.02 9.83 15.83 9.83L15.83 9.83L15.83 9.83Q15.67 9.83 15.55 9.74L15.55 9.74L15.55 9.74Q15.43 9.66 15.43 9.49L15.43 9.49L15.43 9.49Q15.43 9.39 15.49 9.24L15.49 9.24L15.49 9.24Q15.55 9.09 15.55 9.00L15.55 9.00L15.55 9.00Q15.55 8.76 15.30 8.63L15.30 8.63L15.30 8.63Q15.05 8.50 14.70 8.50L14.70 8.50L14.70 8.50Q14.14 8.50 13.79 8.84L13.79 8.84L13.79 8.84Q13.44 9.18 13.44 9.62L13.44 9.62L13.44 9.62Q13.44 10.00 13.70 10.17L13.70 10.17L13.70 10.17Q13.96 10.35 14.49 10.53L14.49 10.53L14.49 10.53Q14.94 10.68 15.22 10.82L15.22 10.82L15.22 10.82Q15.50 10.96 15.69 11.25L15.69 11.25L15.69 11.25Q15.89 11.54 15.89 12.00L15.89 12.00L15.89 12.00Q15.89 12.61 15.54 13.10L15.54 13.10L15.54 13.10Q15.19 13.59 14.67 13.87L14.67 13.87L14.67 13.87Q14.14 14.14 13.61 14.14L13.61 14.14ZM18.41 14.14L18.41 14.14Q17.81 14.14 17.32 13.83L17.32 13.83L17.32 13.83Q16.83 13.51 16.83 13.02L16.83 13.02L16.83 13.02Q16.83 12.80 16.94 12.68L16.94 12.68L16.94 12.68Q17.05 12.56 17.23 12.56L17.23 12.56L17.23 12.56Q17.40 12.56 17.52 12.65L17.52 12.65L17.52 12.65Q17.64 12.74 17.64 12.92L17.64 12.92L17.64 12.92Q17.64 13.02 17.58 13.17L17.58 13.17L17.58 13.17Q17.51 13.33 17.51 13.41L17.51 13.41L17.51 13.41Q17.51 13.64 17.79 13.74L17.79 13.74L17.79 13.74Q18.06 13.85 18.41 13.85L18.41 13.85L18.41 13.85Q19.03 13.85 19.53 13.51L19.53 13.51L19.53 13.51Q20.03 13.17 20.03 12.54L20.03 12.54L20.03 12.54Q20.03 12.07 19.75 11.85L19.75 11.85L19.75 11.85Q19.46 11.63 18.86 11.42L18.86 11.42L18.86 11.42Q18.44 11.28 18.18 11.16L18.18 11.16L18.18 11.16Q17.92 11.03 17.75 10.78L17.75 10.78L17.75 10.78Q17.57 10.53 17.57 10.14L17.57 10.14L17.57 10.14Q17.57 9.62 17.86 9.18L17.86 9.18L17.86 9.18Q18.16 8.75 18.62 8.49L18.62 8.49L18.62 8.49Q19.08 8.23 19.57 8.23L19.57 8.23L19.57 8.23Q20.13 8.23 20.59 8.55L20.59 8.55L20.59 8.55Q21.04 8.88 21.04 9.35L21.04 9.35L21.04 9.35Q21.04 9.59 20.93 9.71L20.93 9.71L20.93 9.71Q20.82 9.83 20.64 9.83L20.64 9.83L20.64 9.83Q20.47 9.83 20.35 9.74L20.35 9.74L20.35 9.74Q20.23 9.66 20.23 9.49L20.23 9.49L20.23 9.49Q20.23 9.39 20.29 9.24L20.29 9.24L20.29 9.24Q20.36 9.09 20.36 9.00L20.36 9.00L20.36 9.00Q20.36 8.76 20.10 8.63L20.10 8.63L20.10 8.63Q19.85 8.50 19.50 8.50L19.50 8.50L19.50 8.50Q18.94 8.50 18.59 8.84L18.59 8.84L18.59 8.84Q18.24 9.18 18.24 9.62L18.24 9.62L18.24 9.62Q18.24 10.00 18.50 10.17L18.50 10.17L18.50 10.17Q18.76 10.35 19.29 10.53L19.29 10.53L19.29 10.53Q19.74 10.68 20.02 10.82L20.02 10.82L20.02 10.82Q20.30 10.96 20.50 11.25L20.50 11.25L20.50 11.25Q20.69 11.54 20.69 12.00L20.69 12.00L20.69 12.00Q20.69 12.61 20.34 13.10L20.34 13.10L20.34 13.10Q19.99 13.59 19.47 13.87L19.47 13.87L19.47 13.87Q18.94 14.14 18.41 14.14L18.41 14.14ZM23.06 14.15L23.06 14.15Q22.67 14.15 22.45 13.93L22.45 13.93L22.45 13.93Q22.23 13.71 22.23 13.44L22.23 13.44L22.23 13.44Q22.23 13.12 22.56 11.65L22.56 11.65L22.56 11.65Q22.89 10.18 23.24 8.81L23.24 8.81L22.15 8.81L22.15 8.81Q22.05 8.81 22.08 8.65L22.08 8.65L22.08 8.65Q22.09 8.58 22.13 8.57L22.13 8.57L22.13 8.57Q22.16 8.55 22.21 8.55L22.21 8.55L22.21 8.55Q22.26 8.55 22.29 8.55L22.29 8.55L22.29 8.55Q23.16 8.55 23.63 7.82L23.63 7.82L23.63 7.82Q24.11 7.08 24.29 6.38L24.29 6.38L24.29 6.38Q24.35 6.20 24.50 6.20L24.50 6.20L24.60 6.20L24.60 6.20Q24.65 6.20 24.69 6.26L24.69 6.26L24.69 6.26Q24.72 6.31 24.70 6.38L24.70 6.38L24.22 8.43L25.24 8.43L25.24 8.43Q25.31 8.43 25.31 8.54L25.31 8.54L25.31 8.54Q25.31 8.62 25.27 8.71L25.27 8.71L25.27 8.71Q25.23 8.81 25.17 8.81L25.17 8.81L24.14 8.81L24.14 8.81Q23.86 9.88 23.50 11.49L23.50 11.49L23.50 11.49Q23.14 13.10 23.14 13.37L23.14 13.37L23.14 13.37Q23.14 13.51 23.24 13.61L23.24 13.61L23.24 13.61Q23.34 13.71 23.48 13.71L23.48 13.71L23.48 13.71Q23.77 13.71 24.11 13.25L24.11 13.25L24.11 13.25Q24.44 12.80 24.77 12.03L24.77 12.03L24.92 12.07L24.92 12.07Q24.51 13.03 24.09 13.59L24.09 13.59L24.09 13.59Q23.67 14.15 23.06 14.15L23.06 14.15ZM28.48 6.41L28.48 6.41Q28.29 6.41 28.17 6.27L28.17 6.27L28.17 6.27Q28.04 6.13 28.04 5.92L28.04 5.92L28.04 5.92Q28.04 5.63 28.27 5.36L28.27 5.36L28.27 5.36Q28.50 5.08 28.78 5.08L28.78 5.08L28.78 5.08Q28.99 5.08 29.13 5.24L29.13 5.24L29.13 5.24Q29.27 5.39 29.27 5.60L29.27 5.60L29.27 5.60Q29.27 5.88 29.02 6.15L29.02 6.15L29.02 6.15Q28.77 6.41 28.48 6.41L28.48 6.41ZM27.24 14.15L27.24 14.15Q26.89 14.15 26.64 13.94L26.64 13.94L26.64 13.94Q26.38 13.72 26.38 13.29L26.38 13.29L26.38 13.29Q26.38 12.92 26.54 12.39L26.54 12.39L26.54 12.39Q26.71 11.86 27.05 10.95L27.05 10.95L27.05 10.95Q27.09 10.82 27.27 10.34L27.27 10.34L27.27 10.34Q27.44 9.86 27.52 9.54L27.52 9.54L27.52 9.54Q27.61 9.23 27.61 9.04L27.61 9.04L27.61 9.04Q27.61 8.88 27.54 8.76L27.54 8.76L27.54 8.76Q27.47 8.65 27.33 8.65L27.33 8.65L27.33 8.65Q27.02 8.65 26.67 9.11L26.67 9.11L26.67 9.11Q26.32 9.58 26.01 10.35L26.01 10.35L25.84 10.30L25.84 10.30Q26.26 9.35 26.70 8.79L26.70 8.79L26.70 8.79Q27.13 8.23 27.73 8.23L27.73 8.23L27.73 8.23Q28.10 8.23 28.32 8.44L28.32 8.44L28.32 8.44Q28.55 8.64 28.55 9.04L28.55 9.04L28.55 9.04Q28.55 9.39 28.39 9.92L28.39 9.92L28.39 9.92Q28.22 10.44 27.93 11.23L27.93 11.23L27.93 11.23Q27.62 12.07 27.48 12.51L27.48 12.51L27.48 12.51Q27.34 12.95 27.34 13.26L27.34 13.26L27.34 13.26Q27.34 13.71 27.65 13.71L27.65 13.71L27.65 13.71Q27.97 13.71 28.31 13.24L28.31 13.24L28.31 13.24Q28.64 12.77 28.95 12.03L28.95 12.03L29.11 12.07L29.11 12.07Q28.70 13.05 28.28 13.60L28.28 13.60L28.28 13.60Q27.86 14.15 27.24 14.15L27.24 14.15ZM34.44 14.15L34.44 14.15Q34.08 14.15 33.83 13.94L33.83 13.94L33.83 13.94Q33.59 13.72 33.59 13.19L33.59 13.19L33.59 13.19Q33.59 12.78 33.71 12.31L33.71 12.31L33.71 12.31Q33.82 11.84 34.08 11.09L34.08 11.09L34.08 11.09Q34.27 10.49 34.38 10.10L34.38 10.10L34.38 10.10Q34.48 9.72 34.48 9.44L34.48 9.44L34.48 9.44Q34.48 8.83 33.91 8.83L33.91 8.83L33.91 8.83Q33.35 8.83 32.96 9.35L32.96 9.35L32.96 9.35Q32.58 9.87 32.32 10.67L32.32 10.67L32.32 10.67Q32.06 11.47 31.68 12.98L31.68 12.98L31.47 13.83L31.47 13.83Q31.43 14.01 31.25 14.01L31.25 14.01L30.69 14.01L30.69 14.01Q30.58 14.01 30.53 13.94L30.53 13.94L30.53 13.94Q30.48 13.87 30.51 13.78L30.51 13.78L30.51 13.78Q30.60 13.36 31.07 11.51L31.07 11.51L31.07 11.51Q31.32 10.54 31.44 9.98L31.44 9.98L31.44 9.98Q31.57 9.41 31.57 9.09L31.57 9.09L31.57 9.09Q31.57 8.64 31.29 8.64L31.29 8.64L31.29 8.64Q31.00 8.64 30.63 9.11L30.63 9.11L30.63 9.11Q30.27 9.58 29.97 10.32L29.97 10.32L29.81 10.28L29.81 10.28Q30.21 9.34 30.64 8.79L30.64 8.79L30.64 8.79Q31.07 8.23 31.70 8.23L31.70 8.23L31.70 8.23Q32.16 8.23 32.32 8.45L32.32 8.45L32.32 8.45Q32.48 8.67 32.48 9.00L32.48 9.00L32.47 9.34L32.47 9.34Q32.47 9.46 32.51 9.46L32.51 9.46L32.51 9.46Q32.54 9.46 32.59 9.41L32.59 9.41L32.59 9.41Q32.65 9.34 32.89 9.02L32.89 9.02L32.89 9.02Q33.14 8.71 33.57 8.47L33.57 8.47L33.57 8.47Q33.99 8.23 34.54 8.23L34.54 8.23L34.54 8.23Q35.52 8.23 35.52 9.10L35.52 9.10L35.52 9.10Q35.52 9.44 35.41 9.86L35.41 9.86L35.41 9.86Q35.29 10.29 35.08 10.95L35.08 10.95L35.08 10.95Q34.85 11.68 34.71 12.19L34.71 12.19L34.71 12.19Q34.58 12.71 34.58 13.16L34.58 13.16L34.58 13.16Q34.58 13.45 34.65 13.58L34.65 13.58L34.65 13.58Q34.72 13.71 34.87 13.71L34.87 13.71L34.87 13.71Q35.46 13.71 36.16 12.03L36.16 12.03L36.32 12.07L36.32 12.07Q35.88 13.09 35.47 13.62L35.47 13.62L35.47 13.62Q35.06 14.15 34.44 14.15L34.44 14.15ZM42.97 8.68L42.97 8.68Q42.99 8.92 42.90 9.07L42.90 9.07L42.90 9.07Q42.80 9.21 42.59 9.21L42.59 9.21L42.59 9.21Q42.45 9.21 42.38 9.16L42.38 9.16L42.38 9.16Q42.31 9.10 42.22 8.98L42.22 8.98L42.22 8.98Q42.14 8.86 42.04 8.86L42.04 8.86L42.04 8.86Q41.78 8.86 41.78 9.58L41.78 9.58L41.79 9.91L41.79 9.91Q41.83 10.58 41.49 11.11L41.49 11.11L41.49 11.11Q41.15 11.63 40.57 11.93L40.57 11.93L40.57 11.93Q39.98 12.22 39.34 12.22L39.34 12.22L39.34 12.22Q38.98 12.22 38.71 12.12L38.71 12.12L38.71 12.12Q38.19 12.18 37.97 12.38L37.97 12.38L37.97 12.38Q37.74 12.57 37.74 12.78L37.74 12.78L37.74 12.78Q37.74 13.02 38.05 13.10L38.05 13.10L38.05 13.10Q38.36 13.17 39.07 13.23L39.07 13.23L39.07 13.23Q39.68 13.26 39.94 13.30L39.94 13.30L39.94 13.30Q40.78 13.41 41.23 13.71L41.23 13.71L41.23 13.71Q41.68 14.01 41.68 14.70L41.68 14.70L41.68 14.70Q41.68 15.61 40.87 16.10L40.87 16.10L40.87 16.10Q40.07 16.59 38.61 16.59L38.61 16.59L38.61 16.59Q36.48 16.59 36.48 15.46L36.48 15.46L36.48 15.46Q36.48 14.94 36.86 14.62L36.86 14.62L36.86 14.62Q37.24 14.29 37.94 14.03L37.94 14.03L37.94 14.03Q37.45 13.96 37.22 13.76L37.22 13.76L37.22 13.76Q36.99 13.55 36.99 13.16L36.99 13.16L36.99 13.16Q36.99 12.70 37.35 12.44L37.35 12.44L37.35 12.44Q37.70 12.18 38.47 12.03L38.47 12.03L38.47 12.03Q37.53 11.55 37.53 10.47L37.53 10.47L37.53 10.47Q37.53 9.83 37.86 9.32L37.86 9.32L37.86 9.32Q38.18 8.81 38.73 8.52L38.73 8.52L38.73 8.52Q39.28 8.23 39.93 8.23L39.93 8.23L39.93 8.23Q40.54 8.23 40.99 8.50L40.99 8.50L40.99 8.50Q41.43 8.76 41.64 9.24L41.64 9.24L41.64 9.24Q41.69 8.65 41.94 8.44L41.94 8.44L41.94 8.44Q42.18 8.23 42.46 8.23L42.46 8.23L42.46 8.23Q42.94 8.23 42.97 8.68L42.97 8.68ZM39.40 11.98L39.40 11.98Q39.76 11.98 40.08 11.74L40.08 11.74L40.08 11.74Q40.40 11.49 40.60 11.02L40.60 11.02L40.60 11.02Q40.80 10.54 40.80 9.88L40.80 9.88L40.80 9.88Q40.80 9.21 40.59 8.84L40.59 8.84L40.59 8.84Q40.39 8.47 39.89 8.47L39.89 8.47L39.89 8.47Q39.26 8.47 38.88 9.05L38.88 9.05L38.88 9.05Q38.50 9.63 38.50 10.46L38.50 10.46L38.50 10.46Q38.50 11.98 39.40 11.98L39.40 11.98ZM38.79 14.14L38.79 14.14Q38.67 14.11 38.39 14.11L38.39 14.11L38.39 14.11Q37.31 14.53 37.31 15.41L37.31 15.41L37.31 15.41Q37.31 15.88 37.67 16.09L37.67 16.09L37.67 16.09Q38.02 16.31 38.93 16.31L38.93 16.31L38.93 16.31Q40.03 16.31 40.54 16.00L40.54 16.00L40.54 16.00Q41.06 15.68 41.06 15.15L41.06 15.15L41.06 15.15Q41.06 14.76 40.78 14.56L40.78 14.56L40.78 14.56Q40.50 14.36 40.07 14.29L40.07 14.29L40.07 14.29Q39.63 14.21 38.79 14.14L38.79 14.14ZM45.01 14.14L45.01 14.14Q44.20 14.14 43.62 13.61L43.62 13.61L43.62 13.61Q43.05 13.08 43.05 12.08L43.05 12.08L43.05 12.08Q43.05 11.80 43.15 11.27L43.15 11.27L43.15 11.27Q43.36 10.36 43.88 9.67L43.88 9.67L43.88 9.67Q44.39 8.97 45.04 8.60L45.04 8.60L45.04 8.60Q45.68 8.23 46.26 8.23L46.26 8.23L46.26 8.23Q47.12 8.23 47.51 8.80L47.51 8.80L47.51 8.80Q47.89 9.37 47.89 10.12L47.89 10.12L47.89 10.12Q47.89 10.47 47.84 10.68L47.84 10.68L47.84 10.68Q47.77 11.02 47.52 11.02L47.52 11.02L44.87 11.02L44.87 11.02Q44.52 11.02 44.36 11.07L44.36 11.07L44.36 11.07Q44.20 11.12 44.16 11.31L44.16 11.31L44.16 11.31Q44.14 11.41 44.07 11.77L44.07 11.77L44.07 11.77Q44.00 12.14 44.00 12.45L44.00 12.45L44.00 12.45Q44.00 13.83 45.28 13.83L45.28 13.83L45.32 13.83L45.32 13.83Q45.74 13.82 46.18 13.57L46.18 13.57L46.18 13.57Q46.62 13.33 47.18 12.67L47.18 12.67L47.18 12.67Q47.24 12.61 47.33 12.61L47.33 12.61L47.33 12.61Q47.40 12.61 47.43 12.66L47.43 12.66L47.43 12.66Q47.45 12.70 47.39 12.78L47.39 12.78L47.39 12.78Q47.28 12.95 46.96 13.27L46.96 13.27L46.96 13.27Q46.65 13.58 46.13 13.86L46.13 13.86L46.13 13.86Q45.61 14.14 45.01 14.14L45.01 14.14ZM44.35 10.67L46.58 10.67L46.58 10.67Q46.77 10.67 46.82 10.63L46.82 10.63L46.82 10.63Q46.86 10.60 46.90 10.42L46.90 10.42L46.90 10.42Q47.00 10.02 47.00 9.53L47.00 9.53L47.00 9.53Q47.00 8.47 46.27 8.47L46.27 8.47L46.27 8.47Q45.74 8.47 45.21 9.02L45.21 9.02L45.21 9.02Q44.69 9.58 44.35 10.67L44.35 10.67ZM49.46 14.01L49.46 14.01Q49.36 14.01 49.31 13.95L49.31 13.95L49.31 13.95Q49.25 13.89 49.28 13.78L49.28 13.78L49.62 12.39L49.62 12.39Q49.97 10.93 50.12 10.21L50.12 10.21L50.12 10.21Q50.27 9.49 50.27 9.10L50.27 9.10L50.27 9.10Q50.27 8.65 50.05 8.65L50.05 8.65L50.05 8.65Q49.76 8.65 49.40 9.14L49.40 9.14L49.40 9.14Q49.04 9.62 48.76 10.35L48.76 10.35L48.59 10.30L48.59 10.30Q49.01 9.32 49.43 8.78L49.43 8.78L49.43 8.78Q49.85 8.23 50.44 8.23L50.44 8.23L50.44 8.23Q51.23 8.23 51.23 9.04L51.23 9.04L51.23 9.04Q51.23 9.30 51.13 9.72L51.13 9.72L51.13 9.72Q51.14 9.69 51.35 9.30L51.35 9.30L51.35 9.30Q51.56 8.92 52.01 8.58L52.01 8.58L52.01 8.58Q52.46 8.23 52.96 8.23L52.96 8.23L52.96 8.23Q53.33 8.25 53.51 8.41L53.51 8.41L53.51 8.41Q53.69 8.58 53.69 8.86L53.69 8.86L53.69 8.86Q53.69 8.93 53.66 9.10L53.66 9.10L53.66 9.10Q53.61 9.41 53.40 9.62L53.40 9.62L53.40 9.62Q53.20 9.83 52.93 9.83L52.93 9.83L52.93 9.83Q52.77 9.83 52.66 9.72L52.66 9.72L52.66 9.72Q52.56 9.62 52.56 9.41L52.56 9.41L52.56 9.41Q52.56 9.25 52.61 9.16L52.61 9.16L52.61 9.16Q52.65 9.07 52.75 8.97L52.75 8.97L52.75 8.97Q52.88 8.82 52.88 8.72L52.88 8.72L52.88 8.72Q52.88 8.55 52.67 8.55L52.67 8.55L52.67 8.55Q52.39 8.55 52.04 8.81L52.04 8.81L52.04 8.81Q51.69 9.07 51.37 9.60L51.37 9.60L51.37 9.60Q51.04 10.14 50.86 10.91L50.86 10.91L50.20 13.83L50.20 13.83Q50.16 14.01 49.98 14.01L49.98 14.01L49.46 14.01Z"></path></g><!----><g data-v-423bf9ae="" id="a5d1a918-f9f9-4d27-b7bf-fb66b9e42ca7" transform="matrix(1.3030257775641259,0,0,1.3030257775641259,-11.46916514414,-13.095408364055615)" stroke="none" fill="white"><path d="M77.546 34.59H12.455a3.288 3.288 0 0 0-3.288 3.288v14.246a3.288 3.288 0 0 0 3.288 3.287h65.091a3.287 3.287 0 0 0 3.287-3.287V37.877a3.287 3.287 0 0 0-3.287-3.287zM57.491 48.178H16.508v-6.355h40.983v6.355zm14.738-.219a2.958 2.958 0 1 1 0-5.917 2.958 2.958 0 0 1 0 5.917zm5.317 10.506H12.455a3.288 3.288 0 0 0-3.288 3.287v14.246a3.288 3.288 0 0 0 3.288 3.287h65.091a3.287 3.287 0 0 0 3.287-3.287V61.752a3.287 3.287 0 0 0-3.287-3.287zM57.491 72.053H16.508v-6.355h40.983v6.355zm14.738-.219a2.958 2.958 0 1 1 0-5.917 2.958 2.958 0 0 1 0 5.917zm5.317-61.619H12.455a3.288 3.288 0 0 0-3.288 3.288v14.246a3.288 3.288 0 0 0 3.288 3.287h65.091a3.287 3.287 0 0 0 3.287-3.287V13.502a3.287 3.287 0 0 0-3.287-3.287zM57.491 23.803H16.508v-6.355h40.983v6.355zm14.738-.219a2.958 2.958 0 1 1 0-5.917 2.958 2.958 0 0 1 0 5.917z"></path></g><!----></svg>