<svg data-v-423bf9ae="" xmlns="http://www.w3.org/2000/svg" viewBox="0 0 422.193474310569 60" class="font"><!----><!----><!----><g data-v-423bf9ae="" id="6ae2e6ab-878b-427e-b578-9e64878c6e6d" fill="black" transform="matrix(4.5696880300864295,0,0,4.5696880300864295,-3.8842298174307928,-24.447830048325834)"><path d="M7.24 7.62L7.24 12.74L7.24 12.74Q7.24 14.27 6.41 15.07L6.41 15.07L6.41 15.07Q5.59 15.88 4.14 15.88L4.14 15.88L4.14 15.88Q3.40 15.88 2.80 15.67L2.80 15.67L2.80 15.67Q2.20 15.47 1.76 15.07L1.76 15.07L1.76 15.07Q1.33 14.67 1.09 14.09L1.09 14.09L1.09 14.09Q0.85 13.51 0.85 12.74L0.85 12.74L0.85 11.82L2.70 11.82L2.70 12.74L2.70 12.74Q2.70 13.40 3.07 13.77L3.07 13.77L3.07 13.77Q3.43 14.14 4.09 14.14L4.09 14.14L4.09 14.14Q4.70 14.14 5.05 13.78L5.05 13.78L5.05 13.78Q5.39 13.41 5.39 12.74L5.39 12.74L5.39 7.62L4.38 7.62L4.38 5.88L8.08 5.88L8.08 7.62L7.24 7.62ZM16.46 12.12L16.46 12.29L16.46 12.29Q16.46 13.16 16.17 13.82L16.17 13.82L16.17 13.82Q15.88 14.49 15.37 14.95L15.37 14.95L15.37 14.95Q14.87 15.40 14.22 15.64L14.22 15.64L14.22 15.64Q13.57 15.88 12.85 15.88L12.85 15.88L12.85 15.88Q12.14 15.88 11.49 15.64L11.49 15.64L11.49 15.64Q10.84 15.40 10.33 14.95L10.33 14.95L10.33 14.95Q9.83 14.49 9.53 13.82L9.53 13.82L9.53 13.82Q9.24 13.16 9.24 12.29L9.24 12.29L9.24 12.12L9.24 12.12Q9.24 11.27 9.53 10.61L9.53 10.61L9.53 10.61Q9.83 9.94 10.33 9.48L10.33 9.48L10.33 9.48Q10.84 9.02 11.49 8.78L11.49 8.78L11.49 8.78Q12.14 8.54 12.85 8.54L12.85 8.54L12.85 8.54Q13.57 8.54 14.22 8.78L14.22 8.78L14.22 8.78Q14.87 9.02 15.37 9.48L15.37 9.48L15.37 9.48Q15.88 9.94 16.17 10.61L16.17 10.61L16.17 10.61Q16.46 11.27 16.46 12.12L16.46 12.12ZM12.85 14.20L12.85 14.20L12.85 14.20Q13.23 14.20 13.57 14.07L13.57 14.07L13.57 14.07Q13.90 13.94 14.15 13.71L14.15 13.71L14.15 13.71Q14.41 13.47 14.55 13.13L14.55 13.13L14.55 13.13Q14.70 12.78 14.70 12.35L14.70 12.35L14.70 12.07L14.70 12.07Q14.70 11.63 14.55 11.29L14.55 11.29L14.55 11.29Q14.41 10.95 14.15 10.71L14.15 10.71L14.15 10.71Q13.90 10.47 13.57 10.35L13.57 10.35L13.57 10.35Q13.23 10.22 12.85 10.22L12.85 10.22L12.85 10.22Q12.47 10.22 12.14 10.35L12.14 10.35L12.14 10.35Q11.80 10.47 11.55 10.71L11.55 10.71L11.55 10.71Q11.30 10.95 11.15 11.29L11.15 11.29L11.15 11.29Q11.00 11.63 11.00 12.07L11.00 12.07L11.00 12.35L11.00 12.35Q11.00 12.78 11.15 13.13L11.15 13.13L11.15 13.13Q11.30 13.47 11.55 13.71L11.55 13.71L11.55 13.71Q11.80 13.94 12.14 14.07L12.14 14.07L12.14 14.07Q12.47 14.20 12.85 14.20ZM20.44 10.70L20.44 10.70L20.44 10.70Q20.44 11.03 20.79 11.18L20.79 11.18L20.79 11.18Q21.14 11.33 22.06 11.42L22.06 11.42L22.06 11.42Q23.13 11.54 23.80 12.06L23.80 12.06L23.80 12.06Q24.47 12.59 24.47 13.52L24.47 13.52L24.47 13.61L24.47 13.61Q24.47 14.64 23.72 15.26L23.72 15.26L23.72 15.26Q22.96 15.88 21.59 15.88L21.59 15.88L21.59 15.88Q20.78 15.88 20.20 15.67L20.20 15.67L20.20 15.67Q19.63 15.46 19.25 15.14L19.25 15.14L19.25 15.14Q18.87 14.83 18.67 14.44L18.67 14.44L18.67 14.44Q18.47 14.06 18.40 13.69L18.40 13.69L20.02 13.16L20.02 13.16Q20.13 13.61 20.49 13.94L20.49 13.94L20.49 13.94Q20.85 14.28 21.59 14.28L21.59 14.28L21.59 14.28Q22.25 14.28 22.49 14.08L22.49 14.08L22.49 14.08Q22.74 13.87 22.74 13.64L22.74 13.64L22.74 13.64Q22.74 13.50 22.67 13.38L22.67 13.38L22.67 13.38Q22.61 13.26 22.44 13.15L22.44 13.15L22.44 13.15Q22.27 13.05 21.99 12.98L21.99 12.98L21.99 12.98Q21.70 12.91 21.27 12.87L21.27 12.87L21.27 12.87Q20.09 12.77 19.40 12.26L19.40 12.26L19.40 12.26Q18.70 11.75 18.70 10.75L18.70 10.75L18.70 10.67L18.70 10.67Q18.70 10.15 18.93 9.76L18.93 9.76L18.93 9.76Q19.15 9.37 19.52 9.09L19.52 9.09L19.52 9.09Q19.88 8.82 20.36 8.68L20.36 8.68L20.36 8.68Q20.83 8.54 21.34 8.54L21.34 8.54L21.34 8.54Q21.99 8.54 22.48 8.70L22.48 8.70L22.48 8.70Q22.96 8.86 23.30 9.12L23.30 9.12L23.30 9.12Q23.63 9.38 23.84 9.70L23.84 9.70L23.84 9.70Q24.05 10.01 24.16 10.30L24.16 10.30L22.57 10.95L22.57 10.95Q22.44 10.57 22.13 10.35L22.13 10.35L22.13 10.35Q21.83 10.14 21.34 10.14L21.34 10.14L21.34 10.14Q20.89 10.14 20.66 10.30L20.66 10.30L20.66 10.30Q20.44 10.46 20.44 10.70ZM31.67 9.21L31.67 8.88L31.67 8.88Q31.67 8.29 31.21 7.85L31.21 7.85L31.21 7.85Q30.76 7.42 29.93 7.42L29.93 7.42L29.93 7.42Q29.23 7.42 28.83 7.71L28.83 7.71L28.83 7.71Q28.42 7.99 28.42 8.48L28.42 8.48L28.42 8.48Q28.42 8.74 28.52 8.94L28.52 8.94L28.52 8.94Q28.62 9.14 28.86 9.30L28.86 9.30L28.86 9.30Q29.11 9.46 29.51 9.59L29.51 9.59L29.51 9.59Q29.90 9.72 30.52 9.83L30.52 9.83L30.52 9.83Q32.06 10.11 32.87 10.77L32.87 10.77L32.87 10.77Q33.68 11.42 33.68 12.71L33.68 12.71L33.68 12.88L33.68 12.88Q33.68 13.57 33.44 14.12L33.44 14.12L33.44 14.12Q33.19 14.67 32.73 15.06L32.73 15.06L32.73 15.06Q32.27 15.46 31.61 15.67L31.61 15.67L31.61 15.67Q30.95 15.88 30.13 15.88L30.13 15.88L30.13 15.88Q29.16 15.88 28.43 15.60L28.43 15.60L28.43 15.60Q27.69 15.33 27.20 14.85L27.20 14.85L27.20 14.85Q26.71 14.36 26.46 13.71L26.46 13.71L26.46 13.71Q26.21 13.06 26.21 12.29L26.21 12.29L26.21 11.87L28.06 11.87L28.06 12.21L28.06 12.21Q28.06 13.09 28.57 13.62L28.57 13.62L28.57 13.62Q29.08 14.14 30.16 14.14L30.16 14.14L30.16 14.14Q31.00 14.14 31.40 13.78L31.40 13.78L31.40 13.78Q31.81 13.41 31.81 12.91L31.81 12.91L31.81 12.91Q31.81 12.67 31.72 12.45L31.72 12.45L31.72 12.45Q31.64 12.24 31.43 12.06L31.43 12.06L31.43 12.06Q31.22 11.89 30.86 11.75L30.86 11.75L30.86 11.75Q30.49 11.61 29.93 11.51L29.93 11.51L29.93 11.51Q29.19 11.38 28.57 11.18L28.57 11.18L28.57 11.18Q27.96 10.98 27.50 10.64L27.50 10.64L27.50 10.64Q27.05 10.30 26.80 9.80L26.80 9.80L26.80 9.80Q26.54 9.30 26.54 8.57L26.54 8.57L26.54 8.48L26.54 8.48Q26.54 7.88 26.79 7.37L26.79 7.37L26.79 7.37Q27.03 6.86 27.48 6.48L27.48 6.48L27.48 6.48Q27.92 6.10 28.54 5.89L28.54 5.89L28.54 5.89Q29.16 5.68 29.93 5.68L29.93 5.68L29.93 5.68Q30.80 5.68 31.47 5.93L31.47 5.93L31.47 5.93Q32.14 6.17 32.60 6.59L32.60 6.59L32.60 6.59Q33.05 7.01 33.29 7.56L33.29 7.56L33.29 7.56Q33.52 8.11 33.52 8.71L33.52 8.71L33.52 9.21L31.67 9.21ZM42.01 12.78L36.92 12.78L36.92 12.78Q36.93 13.09 37.06 13.35L37.06 13.35L37.06 13.35Q37.20 13.61 37.43 13.80L37.43 13.80L37.43 13.80Q37.66 13.99 37.96 14.09L37.96 14.09L37.96 14.09Q38.26 14.20 38.60 14.20L38.60 14.20L38.60 14.20Q39.26 14.20 39.61 13.96L39.61 13.96L39.61 13.96Q39.96 13.73 40.11 13.41L40.11 13.41L41.62 14.25L41.62 14.25Q41.50 14.52 41.27 14.80L41.27 14.80L41.27 14.80Q41.05 15.09 40.69 15.33L40.69 15.33L40.69 15.33Q40.33 15.57 39.82 15.72L39.82 15.72L39.82 15.72Q39.31 15.88 38.63 15.88L38.63 15.88L38.63 15.88Q37.84 15.88 37.20 15.62L37.20 15.62L37.20 15.62Q36.55 15.37 36.09 14.90L36.09 14.90L36.09 14.90Q35.62 14.42 35.36 13.73L35.36 13.73L35.36 13.73Q35.10 13.05 35.10 12.18L35.10 12.18L35.10 12.10L35.10 12.10Q35.10 11.30 35.37 10.64L35.37 10.64L35.37 10.64Q35.64 9.98 36.12 9.52L36.12 9.52L36.12 9.52Q36.60 9.06 37.23 8.80L37.23 8.80L37.23 8.80Q37.87 8.54 38.60 8.54L38.60 8.54L38.60 8.54Q39.49 8.54 40.14 8.86L40.14 8.86L40.14 8.86Q40.78 9.17 41.20 9.65L41.20 9.65L41.20 9.65Q41.62 10.14 41.82 10.72L41.82 10.72L41.82 10.72Q42.01 11.30 42.01 11.84L42.01 11.84L42.01 12.78ZM38.58 10.14L38.58 10.14L38.58 10.14Q37.91 10.14 37.49 10.48L37.49 10.48L37.49 10.48Q37.07 10.82 36.95 11.27L36.95 11.27L40.22 11.27L40.22 11.27Q40.14 10.78 39.70 10.46L39.70 10.46L39.70 10.46Q39.26 10.14 38.58 10.14ZM48.97 12.70L50.71 13.13L50.71 13.13Q50.47 14.36 49.58 15.12L49.58 15.12L49.58 15.12Q48.69 15.88 47.21 15.88L47.21 15.88L47.21 15.88Q46.44 15.88 45.77 15.64L45.77 15.64L45.77 15.64Q45.11 15.40 44.62 14.95L44.62 14.95L44.62 14.95Q44.13 14.50 43.85 13.85L43.85 13.85L43.85 13.85Q43.57 13.19 43.57 12.35L43.57 12.35L43.57 12.18L43.57 12.18Q43.57 11.34 43.85 10.67L43.85 10.67L43.85 10.67Q44.13 10.00 44.63 9.52L44.63 9.52L44.63 9.52Q45.12 9.04 45.79 8.79L45.79 8.79L45.79 8.79Q46.45 8.54 47.21 8.54L47.21 8.54L47.21 8.54Q48.66 8.54 49.57 9.30L49.57 9.30L49.57 9.30Q50.47 10.05 50.71 11.28L50.71 11.28L48.97 11.73L48.97 11.73Q48.89 11.12 48.44 10.67L48.44 10.67L48.44 10.67Q47.99 10.22 47.18 10.22L47.18 10.22L47.18 10.22Q46.80 10.22 46.47 10.36L46.47 10.36L46.47 10.36Q46.13 10.50 45.88 10.76L45.88 10.76L45.88 10.76Q45.63 11.02 45.48 11.39L45.48 11.39L45.48 11.39Q45.33 11.76 45.33 12.22L45.33 12.22L45.33 12.31L45.33 12.31Q45.33 12.77 45.48 13.13L45.48 13.13L45.48 13.13Q45.63 13.48 45.88 13.72L45.88 13.72L45.88 13.72Q46.13 13.96 46.47 14.08L46.47 14.08L46.47 14.08Q46.80 14.20 47.18 14.20L47.18 14.20L47.18 14.20Q47.99 14.20 48.42 13.79L48.42 13.79L48.42 13.79Q48.85 13.38 48.97 12.70L48.97 12.70ZM57.20 12.38L57.20 8.74L58.97 8.74L58.97 15.68L57.20 15.68L57.20 14.67L56.95 14.67L56.95 14.67Q56.49 15.88 54.96 15.88L54.96 15.88L54.96 15.88Q54.45 15.88 54.00 15.71L54.00 15.71L54.00 15.71Q53.55 15.54 53.21 15.19L53.21 15.19L53.21 15.19Q52.88 14.84 52.69 14.31L52.69 14.31L52.69 14.31Q52.50 13.79 52.50 13.08L52.50 13.08L52.50 8.74L54.26 8.74L54.26 12.71L54.26 12.71Q54.26 13.45 54.61 13.87L54.61 13.87L54.61 13.87Q54.96 14.28 55.66 14.28L55.66 14.28L55.66 14.28Q56.46 14.28 56.83 13.77L56.83 13.77L56.83 13.77Q57.20 13.26 57.20 12.38L57.20 12.38ZM60.73 10.42L60.73 8.74L63.67 8.74L63.67 9.74L63.92 9.74L63.92 9.74Q64.12 9.17 64.59 8.86L64.59 8.86L64.59 8.86Q65.06 8.54 65.72 8.54L65.72 8.54L65.72 8.54Q66.75 8.54 67.38 9.19L67.38 9.19L67.38 9.19Q68.01 9.84 68.01 11.17L68.01 11.17L68.01 11.48L66.19 11.65L66.19 11.45L66.19 11.45Q66.19 10.88 65.90 10.54L65.90 10.54L65.90 10.54Q65.60 10.19 65.02 10.19L65.02 10.19L65.02 10.19Q64.43 10.19 64.09 10.60L64.09 10.60L64.09 10.60Q63.76 11.00 63.76 11.76L63.76 11.76L63.76 14L65.35 14L65.35 15.68L60.56 15.68L60.56 14L61.99 14L61.99 10.42L60.73 10.42ZM69.76 15.68L69.76 14L72.11 14L72.11 10.42L69.93 10.42L69.93 8.74L73.88 8.74L73.88 14L75.89 14L75.89 15.68L69.76 15.68ZM74.31 6.68L74.31 6.68L74.31 6.68Q74.31 6.96 74.21 7.20L74.21 7.20L74.21 7.20Q74.10 7.45 73.92 7.62L73.92 7.62L73.92 7.62Q73.74 7.80 73.49 7.90L73.49 7.90L73.49 7.90Q73.25 8.01 72.98 8.01L72.98 8.01L72.98 8.01Q72.70 8.01 72.46 7.90L72.46 7.90L72.46 7.90Q72.23 7.80 72.04 7.62L72.04 7.62L72.04 7.62Q71.86 7.45 71.76 7.20L71.76 7.20L71.76 7.20Q71.65 6.96 71.65 6.68L71.65 6.68L71.65 6.68Q71.65 6.40 71.76 6.15L71.76 6.15L71.76 6.15Q71.86 5.91 72.04 5.73L72.04 5.73L72.04 5.73Q72.23 5.56 72.46 5.45L72.46 5.45L72.46 5.45Q72.70 5.35 72.98 5.35L72.98 5.35L72.98 5.35Q73.25 5.35 73.49 5.45L73.49 5.45L73.49 5.45Q73.74 5.56 73.92 5.73L73.92 5.73L73.92 5.73Q74.10 5.91 74.21 6.15L74.21 6.15L74.21 6.15Q74.31 6.40 74.31 6.68ZM78.01 10.42L78.01 8.74L80.07 8.74L80.07 5.88L81.83 5.88L81.83 8.74L84.34 8.74L84.34 10.42L81.83 10.42L81.83 13.58L81.83 13.58Q81.83 14 82.21 14L82.21 14L84.08 14L84.08 15.68L81.14 15.68L81.14 15.68Q80.67 15.68 80.37 15.37L80.37 15.37L80.37 15.37Q80.07 15.06 80.07 14.59L80.07 14.59L80.07 10.42L78.01 10.42ZM91.48 12.38L91.48 8.74L93.24 8.74L93.24 17.39L93.24 17.39Q93.24 17.86 92.94 18.17L92.94 18.17L92.94 18.17Q92.64 18.48 92.16 18.48L92.16 18.48L88.03 18.48L88.03 16.80L91.10 16.80L91.10 16.80Q91.48 16.80 91.48 16.38L91.48 16.38L91.48 14.67L91.22 14.67L91.22 14.67Q90.76 15.88 89.24 15.88L89.24 15.88L89.24 15.88Q88.72 15.88 88.27 15.71L88.27 15.71L88.27 15.71Q87.82 15.54 87.49 15.19L87.49 15.19L87.49 15.19Q87.15 14.84 86.96 14.31L86.96 14.31L86.96 14.31Q86.77 13.79 86.77 13.08L86.77 13.08L86.77 8.74L88.54 8.74L88.54 12.71L88.54 12.71Q88.54 13.45 88.89 13.87L88.89 13.87L88.89 13.87Q89.24 14.28 89.94 14.28L89.94 14.28L89.94 14.28Q90.73 14.28 91.10 13.77L91.10 13.77L91.10 13.77Q91.48 13.26 91.48 12.38L91.48 12.38Z"></path></g><!----><!----></svg>