<svg data-v-423bf9ae="" xmlns="http://www.w3.org/2000/svg" viewBox="0 0 517 90" class="iconLeft"><!----><!----><!----><g data-v-423bf9ae="" id="d3b24339-6037-48f0-9e44-dcc29a4962ce" fill="white" transform="matrix(4.285714285714286,0,0,4.285714285714286,135.8912993158613,-2.100001709801809)"><path d="M6.16 11.56L9.24 4.19L11.26 4.19L9.79 14.49L7.77 14.49L8.67 8.20L6.03 14.49L4.12 14.49L4.40 8.18L2.06 14.49L0.94 14.49L4.49 4.87L4.49 4.87Q3.42 5.24 2.84 6.05L2.84 6.05L2.84 6.05Q2.27 6.86 2.27 8.02L2.27 8.02L2.27 8.02Q2.27 8.30 2.30 8.50L2.30 8.50L2.30 8.50Q2.34 8.71 2.42 8.88L2.42 8.88L2.42 8.88Q2.45 8.93 2.46 8.95L2.46 8.95L2.46 8.95Q2.46 8.97 2.46 8.99L2.46 8.99L2.46 8.99Q1.71 8.99 1.34 8.67L1.34 8.67L1.34 8.67Q0.97 8.36 0.97 7.71L0.97 7.71L0.97 7.71Q0.97 7.04 1.38 6.35L1.38 6.35L1.38 6.35Q1.79 5.66 2.52 5.08L2.52 5.08L2.52 5.08Q3.18 4.56 3.93 4.28L3.93 4.28L3.93 4.28Q4.69 3.99 5.42 3.99L5.42 3.99L5.42 3.99Q5.68 3.99 5.96 4.04L5.96 4.04L5.96 4.04Q6.23 4.09 6.48 4.19L6.48 4.19L6.16 11.56ZM14.48 5.63L14.48 5.63L14.48 5.63Q14.48 6.09 14.15 6.41L14.15 6.41L14.15 6.41Q13.82 6.73 13.36 6.73L13.36 6.73L13.36 6.73Q12.89 6.73 12.57 6.41L12.57 6.41L12.57 6.41Q12.25 6.09 12.25 5.63L12.25 5.63L12.25 5.63Q12.25 5.17 12.57 4.84L12.57 4.84L12.57 4.84Q12.89 4.51 13.36 4.51L13.36 4.51L13.36 4.51Q13.82 4.51 14.15 4.84L14.15 4.84L14.15 4.84Q14.48 5.17 14.48 5.63ZM10.91 12.89L10.91 12.89L10.91 12.89Q10.91 12.71 10.93 12.48L10.93 12.48L10.93 12.48Q10.96 12.25 11.02 11.98L11.02 11.98L11.97 7.49L13.99 7.49L12.98 12.25L12.98 12.25Q12.95 12.38 12.94 12.48L12.94 12.48L12.94 12.48Q12.92 12.59 12.92 12.70L12.92 12.70L12.92 12.70Q12.92 12.98 13.05 13.10L13.05 13.10L13.05 13.10Q13.19 13.22 13.50 13.22L13.50 13.22L13.50 13.22Q13.89 13.22 14.24 12.87L14.24 12.87L14.24 12.87Q14.59 12.53 14.76 11.98L14.76 11.98L15.34 11.98L15.34 11.98Q14.90 13.26 14.14 13.92L14.14 13.92L14.14 13.92Q13.38 14.57 12.40 14.57L12.40 14.57L12.40 14.57Q11.70 14.57 11.31 14.13L11.31 14.13L11.31 14.13Q10.91 13.69 10.91 12.89ZM19.74 4.97L19.74 4.97L19.74 4.97Q20.45 4.51 21.27 4.25L21.27 4.25L21.27 4.25Q22.09 3.99 22.88 3.99L22.88 3.99L22.88 3.99Q22.97 3.99 23.09 4.00L23.09 4.00L23.09 4.00Q23.21 4.00 23.44 4.02L23.44 4.02L22.54 8.19L24.60 8.19L25.49 4.02L27.51 4.02L25.28 14.49L23.27 14.49L24.39 9.23L22.33 9.23L21.21 14.49L19.19 14.49L21.22 4.97L21.22 4.97Q20.27 5.36 19.77 6.15L19.77 6.15L19.77 6.15Q19.26 6.94 19.26 8.04L19.26 8.04L19.26 8.04Q19.26 8.30 19.30 8.50L19.30 8.50L19.30 8.50Q19.33 8.69 19.42 8.88L19.42 8.88L19.42 8.88Q19.45 8.93 19.45 8.95L19.45 8.95L19.45 8.95Q19.46 8.97 19.46 8.99L19.46 8.99L19.46 8.99Q18.68 8.99 18.32 8.66L18.32 8.66L18.32 8.66Q17.96 8.33 17.96 7.63L17.96 7.63L17.96 7.63Q17.96 6.93 18.43 6.23L18.43 6.23L18.43 6.23Q18.90 5.53 19.74 4.97ZM26.91 12.33L26.91 12.33L26.91 12.33Q26.91 11.54 27.17 10.64L27.17 10.64L27.17 10.64Q27.43 9.74 27.87 9.04L27.87 9.04L27.87 9.04Q28.39 8.22 29.12 7.79L29.12 7.79L29.12 7.79Q29.85 7.36 30.74 7.36L30.74 7.36L30.74 7.36Q31.64 7.36 32.09 7.92L32.09 7.92L32.09 7.92Q32.54 8.48 32.54 9.60L32.54 9.60L32.54 9.60Q32.56 9.62 32.60 9.63L32.60 9.63L32.60 9.63Q32.63 9.63 32.69 9.63L32.69 9.63L32.69 9.63Q33.12 9.63 33.73 9.39L33.73 9.39L33.73 9.39Q34.33 9.16 34.85 8.79L34.85 8.79L34.97 9.17L34.97 9.17Q34.58 9.59 33.93 9.90L33.93 9.90L33.93 9.90Q33.28 10.21 32.49 10.33L32.49 10.33L32.49 10.33Q32.33 12.22 31.40 13.38L31.40 13.38L31.40 13.38Q30.48 14.55 29.15 14.55L29.15 14.55L29.15 14.55Q28.06 14.55 27.48 13.99L27.48 13.99L27.48 13.99Q26.91 13.43 26.91 12.33ZM30.86 8.22L30.86 8.22L30.86 8.22Q30.18 8.22 29.59 9.58L29.59 9.58L29.59 9.58Q28.99 10.93 28.99 12.15L28.99 12.15L28.99 12.15Q28.99 12.81 29.14 13.05L29.14 13.05L29.14 13.05Q29.29 13.29 29.71 13.29L29.71 13.29L29.71 13.29Q30.23 13.29 30.70 12.45L30.70 12.45L30.70 12.45Q31.16 11.61 31.33 10.37L31.33 10.37L31.33 10.37Q31.14 10.33 31.04 10.19L31.04 10.19L31.04 10.19Q30.95 10.04 30.95 9.79L30.95 9.79L30.95 9.79Q30.95 9.52 31.07 9.32L31.07 9.32L31.07 9.32Q31.18 9.13 31.39 9.03L31.39 9.03L31.39 9.03Q31.36 8.58 31.24 8.40L31.24 8.40L31.24 8.40Q31.12 8.22 30.86 8.22ZM37.65 12.15L37.65 12.15L37.65 12.15Q37.65 12.32 37.63 12.45L37.63 12.45L37.63 12.45Q37.62 12.57 37.59 12.68L37.59 12.68L37.59 12.68Q37.87 12.52 38.14 12.33L38.14 12.33L38.14 12.33Q38.40 12.15 38.60 11.98L38.60 11.98L39.19 11.98L39.19 11.98Q38.75 12.49 38.23 12.92L38.23 12.92L38.23 12.92Q37.70 13.34 37.04 13.73L37.04 13.73L37.04 13.73Q36.67 14.14 36.08 14.36L36.08 14.36L36.08 14.36Q35.49 14.57 34.85 14.57L34.85 14.57L34.85 14.57Q33.91 14.57 33.35 14.06L33.35 14.06L33.35 14.06Q32.80 13.55 32.80 12.78L32.80 12.78L32.80 12.78Q32.80 12.35 33.01 11.99L33.01 11.99L33.01 11.99Q33.22 11.63 33.54 11.48L33.54 11.48L33.54 11.48Q34.02 10.63 34.43 9.65L34.43 9.65L34.43 9.65Q34.85 8.68 35.27 7.34L35.27 7.34L37.34 7.06L37.34 7.06Q37.38 8.11 37.44 8.97L37.44 8.97L37.44 8.97Q37.49 9.84 37.58 10.86L37.58 10.86L37.58 10.86Q37.62 11.45 37.63 11.69L37.63 11.69L37.63 11.69Q37.65 11.93 37.65 12.15ZM35.35 8.85L35.35 8.85L35.35 8.85Q35.17 9.42 34.91 10.04L34.91 10.04L34.91 10.04Q34.65 10.67 34.22 11.49L34.22 11.49L34.22 11.49Q34.37 11.56 34.45 11.69L34.45 11.69L34.45 11.69Q34.54 11.82 34.54 11.98L34.54 11.98L34.54 11.98Q34.54 12.25 34.36 12.46L34.36 12.46L34.36 12.46Q34.17 12.67 33.92 12.67L33.92 12.67L33.92 12.67Q33.78 12.67 33.68 12.62L33.68 12.62L33.68 12.62Q33.59 12.57 33.54 12.49L33.54 12.49L33.54 12.49Q33.54 13.01 33.75 13.24L33.75 13.24L33.75 13.24Q33.95 13.47 34.40 13.47L34.40 13.47L34.40 13.47Q34.97 13.47 35.29 13.13L35.29 13.13L35.29 13.13Q35.62 12.80 35.62 12.17L35.62 12.17L35.62 12.17Q35.62 11.97 35.60 11.77L35.60 11.77L35.60 11.77Q35.59 11.56 35.55 11.09L35.55 11.09L35.55 11.09Q35.48 10.43 35.43 9.93L35.43 9.93L35.43 9.93Q35.39 9.42 35.35 8.85ZM38.98 8.05L39.09 7.49L39.55 7.49L39.97 5.56L42.04 5.28L41.57 7.49L42.41 7.49L42.29 8.05L41.45 8.05L40.56 12.25L40.56 12.25Q40.53 12.38 40.52 12.48L40.52 12.48L40.52 12.48Q40.50 12.59 40.50 12.70L40.50 12.70L40.50 12.70Q40.50 12.98 40.63 13.10L40.63 13.10L40.63 13.10Q40.77 13.22 41.08 13.22L41.08 13.22L41.08 13.22Q41.47 13.22 41.82 12.87L41.82 12.87L41.82 12.87Q42.17 12.53 42.34 11.98L42.34 11.98L42.92 11.98L42.92 11.98Q42.48 13.26 41.72 13.92L41.72 13.92L41.72 13.92Q40.96 14.57 39.98 14.57L39.98 14.57L39.98 14.57Q39.28 14.57 38.88 14.13L38.88 14.13L38.88 14.13Q38.49 13.69 38.49 12.89L38.49 12.89L38.49 12.89Q38.49 12.71 38.51 12.48L38.51 12.48L38.51 12.48Q38.54 12.25 38.60 11.98L38.60 11.98L39.44 8.05L38.98 8.05ZM45.79 5.63L45.79 5.63L45.79 5.63Q45.79 6.09 45.46 6.41L45.46 6.41L45.46 6.41Q45.14 6.73 44.67 6.73L44.67 6.73L44.67 6.73Q44.21 6.73 43.89 6.41L43.89 6.41L43.89 6.41Q43.57 6.09 43.57 5.63L43.57 5.63L43.57 5.63Q43.57 5.17 43.89 4.84L43.89 4.84L43.89 4.84Q44.21 4.51 44.67 4.51L44.67 4.51L44.67 4.51Q45.14 4.51 45.46 4.84L45.46 4.84L45.46 4.84Q45.79 5.17 45.79 5.63ZM42.22 12.89L42.22 12.89L42.22 12.89Q42.22 12.71 42.25 12.48L42.25 12.48L42.25 12.48Q42.28 12.25 42.34 11.98L42.34 11.98L43.29 7.49L45.30 7.49L44.30 12.25L44.30 12.25Q44.27 12.38 44.25 12.48L44.25 12.48L44.25 12.48Q44.24 12.59 44.24 12.70L44.24 12.70L44.24 12.70Q44.24 12.98 44.37 13.10L44.37 13.10L44.37 13.10Q44.51 13.22 44.81 13.22L44.81 13.22L44.81 13.22Q45.21 13.22 45.56 12.87L45.56 12.87L45.56 12.87Q45.91 12.53 46.07 11.98L46.07 11.98L46.66 11.98L46.66 11.98Q46.21 13.26 45.46 13.92L45.46 13.92L45.46 13.92Q44.70 14.57 43.72 14.57L43.72 14.57L43.72 14.57Q43.02 14.57 42.62 14.13L42.62 14.13L42.62 14.13Q42.22 13.69 42.22 12.89ZM49.36 12.99L49.36 12.99L49.36 12.99Q49.36 12.74 49.43 12.36L49.43 12.36L49.43 12.36Q49.49 11.98 49.69 11.16L49.69 11.16L49.69 11.16Q49.88 10.36 49.94 10.01L49.94 10.01L49.94 10.01Q49.99 9.66 49.99 9.42L49.99 9.42L49.99 9.42Q49.99 9.07 49.87 8.89L49.87 8.89L49.87 8.89Q49.74 8.71 49.49 8.71L49.49 8.71L49.49 8.71Q49.15 8.71 48.87 9.05L48.87 9.05L48.87 9.05Q48.58 9.39 48.40 10.00L48.40 10.00L47.45 14.49L45.43 14.49L46.91 7.49L48.93 7.49L48.78 8.22L48.78 8.22Q49.13 7.83 49.53 7.63L49.53 7.63L49.53 7.63Q49.94 7.43 50.41 7.43L50.41 7.43L50.41 7.43Q51.16 7.43 51.56 7.84L51.56 7.84L51.56 7.84Q51.97 8.25 51.97 9.02L51.97 9.02L51.97 9.02Q51.97 9.34 51.89 9.78L51.89 9.78L51.89 9.78Q51.81 10.22 51.59 11.13L51.59 11.13L51.59 11.13Q51.41 11.84 51.35 12.14L51.35 12.14L51.35 12.14Q51.30 12.43 51.30 12.63L51.30 12.63L51.30 12.63Q51.30 12.92 51.44 13.07L51.44 13.07L51.44 13.07Q51.58 13.22 51.86 13.22L51.86 13.22L51.86 13.22Q52.21 13.22 52.46 12.98L52.46 12.98L52.46 12.98Q52.71 12.74 53.03 11.98L53.03 11.98L53.62 11.98L53.62 11.98Q53.17 13.29 52.53 13.93L52.53 13.93L52.53 13.93Q51.90 14.57 51.02 14.57L51.02 14.57L51.02 14.57Q50.23 14.57 49.80 14.15L49.80 14.15L49.80 14.15Q49.36 13.72 49.36 12.99ZM57.67 8.13L57.67 8.13L57.67 8.22L57.82 7.49L59.84 7.49L58.45 13.99L58.45 13.99Q59.15 13.73 59.55 13.28L59.55 13.28L59.55 13.28Q59.95 12.82 60.21 11.98L60.21 11.98L60.80 11.98L60.80 11.98Q60.48 13.05 59.88 13.69L59.88 13.69L59.88 13.69Q59.29 14.34 58.32 14.60L58.32 14.60L58.11 15.61L58.11 15.61Q57.86 16.79 57.23 17.39L57.23 17.39L57.23 17.39Q56.60 17.99 55.59 17.99L55.59 17.99L55.59 17.99Q54.88 17.99 54.45 17.63L54.45 17.63L54.45 17.63Q54.03 17.26 54.03 16.63L54.03 16.63L54.03 16.63Q54.03 15.95 54.59 15.42L54.59 15.42L54.59 15.42Q55.16 14.90 56.31 14.55L56.31 14.55L56.48 13.80L56.48 13.80Q56.11 14.18 55.69 14.38L55.69 14.38L55.69 14.38Q55.27 14.57 54.80 14.57L54.80 14.57L54.80 14.57Q53.93 14.57 53.43 13.99L53.43 13.99L53.43 13.99Q52.93 13.40 52.93 12.32L52.93 12.32L52.93 12.32Q52.93 11.54 53.17 10.68L53.17 10.68L53.17 10.68Q53.41 9.83 53.83 9.13L53.83 9.13L53.83 9.13Q54.35 8.30 55.03 7.86L55.03 7.86L55.03 7.86Q55.72 7.42 56.53 7.42L56.53 7.42L56.53 7.42Q57.08 7.42 57.37 7.61L57.37 7.61L57.37 7.61Q57.67 7.80 57.67 8.13ZM56.83 12.12L57.54 8.81L57.54 8.81Q57.53 8.58 57.37 8.44L57.37 8.44L57.37 8.44Q57.22 8.29 56.97 8.29L56.97 8.29L56.97 8.29Q56.20 8.29 55.60 9.58L55.60 9.58L55.60 9.58Q55.01 10.86 55.01 12.12L55.01 12.12L55.01 12.12Q55.01 12.67 55.16 12.94L55.16 12.94L55.16 12.94Q55.31 13.22 55.71 13.22L55.71 13.22L55.71 13.22Q56.04 13.22 56.37 12.91L56.37 12.91L56.37 12.91Q56.70 12.60 56.83 12.12L56.83 12.12ZM56.08 15.65L56.17 15.25L56.17 15.25Q55.47 15.51 55.13 15.80L55.13 15.80L55.13 15.80Q54.80 16.09 54.80 16.44L54.80 16.44L54.80 16.44Q54.80 16.62 54.94 16.76L54.94 16.76L54.94 16.76Q55.08 16.90 55.27 16.90L55.27 16.90L55.27 16.90Q55.51 16.90 55.73 16.56L55.73 16.56L55.73 16.56Q55.96 16.23 56.08 15.65L56.08 15.65ZM71.69 4.33L71.69 4.33L71.69 4.33Q72.11 4.33 72.55 4.25L72.55 4.25L72.55 4.25Q72.98 4.17 73.32 4.03L73.32 4.03L73.32 4.03Q73.30 4.93 72.86 5.37L72.86 5.37L72.86 5.37Q72.42 5.81 71.57 5.81L71.57 5.81L71.57 5.81Q71.16 5.81 70.66 5.74L70.66 5.74L70.66 5.74Q70.17 5.67 69.40 5.50L69.40 5.50L67.47 14.49L65.45 14.49L67.44 5.22L67.27 5.22L67.27 5.22Q65.91 5.22 65.27 5.91L65.27 5.91L65.27 5.91Q64.64 6.61 64.64 8.05L64.64 8.05L64.64 8.05Q64.64 8.32 64.67 8.51L64.67 8.51L64.67 8.51Q64.71 8.71 64.79 8.89L64.79 8.89L64.79 8.89Q64.82 8.95 64.83 8.97L64.83 8.97L64.83 8.97Q64.83 8.99 64.83 9.00L64.83 9.00L64.83 9.00Q64.05 9.00 63.69 8.67L63.69 8.67L63.69 8.67Q63.34 8.34 63.34 7.64L63.34 7.64L63.34 7.64Q63.34 5.98 64.59 4.99L64.59 4.99L64.59 4.99Q65.84 4.00 68.11 4.00L68.11 4.00L68.11 4.00Q68.57 4.00 69.00 4.04L69.00 4.04L69.00 4.04Q69.43 4.07 70.10 4.17L70.10 4.17L70.10 4.17Q70.69 4.27 71.02 4.30L71.02 4.30L71.02 4.30Q71.34 4.33 71.69 4.33ZM75.12 8.71L75.12 8.71L75.12 8.71Q75.12 9.87 74.17 10.73L74.17 10.73L74.17 10.73Q73.22 11.59 71.90 11.66L71.90 11.66L71.90 11.66Q71.89 11.90 71.88 12.02L71.88 12.02L71.88 12.02Q71.88 12.14 71.88 12.22L71.88 12.22L71.88 12.22Q71.88 12.87 72.09 13.13L72.09 13.13L72.09 13.13Q72.31 13.40 72.88 13.40L72.88 13.40L72.88 13.40Q73.54 13.40 74.09 13.10L74.09 13.10L74.09 13.10Q74.65 12.80 75.36 11.98L75.36 11.98L75.84 11.98L75.84 11.98Q75.03 13.30 74.07 13.94L74.07 13.94L74.07 13.94Q73.12 14.57 71.99 14.57L71.99 14.57L71.99 14.57Q70.91 14.57 70.36 14.01L70.36 14.01L70.36 14.01Q69.80 13.45 69.80 12.35L69.80 12.35L69.80 12.35Q69.80 11.55 70.06 10.65L70.06 10.65L70.06 10.65Q70.31 9.76 70.73 9.06L70.73 9.06L70.73 9.06Q71.25 8.22 71.97 7.79L71.97 7.79L71.97 7.79Q72.69 7.36 73.58 7.36L73.58 7.36L73.58 7.36Q74.35 7.36 74.74 7.69L74.74 7.69L74.74 7.69Q75.12 8.02 75.12 8.71ZM73.70 8.11L73.70 8.11L73.70 8.11Q73.22 8.11 72.74 8.95L72.74 8.95L72.74 8.95Q72.25 9.80 72.02 10.99L72.02 10.99L72.02 10.99Q72.83 10.93 73.44 10.24L73.44 10.24L73.44 10.24Q74.05 9.55 74.05 8.68L74.05 8.68L74.05 8.68Q74.05 8.39 73.96 8.25L73.96 8.25L73.96 8.25Q73.88 8.11 73.70 8.11ZM80.75 8.65L80.75 8.65L80.75 8.65Q80.75 9.13 80.55 9.40L80.55 9.40L80.55 9.40Q80.35 9.67 80.01 9.67L80.01 9.67L80.01 9.67Q79.90 9.67 79.77 9.63L79.77 9.63L79.77 9.63Q79.65 9.59 79.52 9.51L79.52 9.51L79.52 9.51Q79.60 9.28 79.65 9.07L79.65 9.07L79.65 9.07Q79.69 8.86 79.69 8.68L79.69 8.68L79.69 8.68Q79.69 8.40 79.59 8.25L79.59 8.25L79.59 8.25Q79.49 8.11 79.30 8.11L79.30 8.11L79.30 8.11Q78.68 8.11 78.09 9.53L78.09 9.53L78.09 9.53Q77.50 10.95 77.50 12.22L77.50 12.22L77.50 12.22Q77.50 12.87 77.72 13.13L77.72 13.13L77.72 13.13Q77.94 13.40 78.51 13.40L78.51 13.40L78.51 13.40Q79.17 13.40 79.72 13.10L79.72 13.10L79.72 13.10Q80.28 12.80 80.99 11.98L80.99 11.98L81.47 11.98L81.47 11.98Q80.65 13.30 79.70 13.94L79.70 13.94L79.70 13.94Q78.75 14.57 77.62 14.57L77.62 14.57L77.62 14.57Q76.54 14.57 75.98 14.01L75.98 14.01L75.98 14.01Q75.43 13.45 75.43 12.35L75.43 12.35L75.43 12.35Q75.43 11.55 75.68 10.65L75.68 10.65L75.68 10.65Q75.92 9.76 76.36 9.06L76.36 9.06L76.36 9.06Q76.87 8.22 77.59 7.79L77.59 7.79L77.59 7.79Q78.32 7.36 79.20 7.36L79.20 7.36L79.20 7.36Q79.97 7.36 80.36 7.69L80.36 7.69L80.36 7.69Q80.75 8.02 80.75 8.65ZM84.50 12.99L84.50 12.99L84.50 12.99Q84.50 12.74 84.57 12.36L84.57 12.36L84.57 12.36Q84.63 11.98 84.83 11.16L84.83 11.16L84.83 11.16Q85.02 10.36 85.08 10.01L85.08 10.01L85.08 10.01Q85.13 9.66 85.13 9.42L85.13 9.42L85.13 9.42Q85.13 9.07 85.00 8.89L85.00 8.89L85.00 8.89Q84.87 8.71 84.62 8.71L84.62 8.71L84.62 8.71Q84.28 8.71 83.96 9.11L83.96 9.11L83.96 9.11Q83.65 9.51 83.55 9.94L83.55 9.94L82.59 14.49L80.57 14.49L82.60 4.97L84.67 4.69L83.92 8.22L83.92 8.22Q84.27 7.83 84.67 7.63L84.67 7.63L84.67 7.63Q85.08 7.43 85.55 7.43L85.55 7.43L85.55 7.43Q86.30 7.43 86.70 7.84L86.70 7.84L86.70 7.84Q87.11 8.25 87.11 9.02L87.11 9.02L87.11 9.02Q87.11 9.34 87.03 9.78L87.03 9.78L87.03 9.78Q86.95 10.22 86.73 11.13L86.73 11.13L86.73 11.13Q86.55 11.84 86.49 12.14L86.49 12.14L86.49 12.14Q86.44 12.43 86.44 12.63L86.44 12.63L86.44 12.63Q86.44 12.92 86.58 13.07L86.58 13.07L86.58 13.07Q86.72 13.22 87.00 13.22L87.00 13.22L87.00 13.22Q87.35 13.22 87.60 12.98L87.60 12.98L87.60 12.98Q87.85 12.74 88.17 11.98L88.17 11.98L88.76 11.98L88.76 11.98Q88.31 13.29 87.67 13.93L87.67 13.93L87.67 13.93Q87.04 14.57 86.16 14.57L86.16 14.57L86.16 14.57Q85.37 14.57 84.94 14.15L84.94 14.15L84.94 14.15Q84.50 13.72 84.50 12.99Z"></path></g><!----><g data-v-423bf9ae="" id="f8bd7a49-4a97-4099-83d1-9d7244b91cc7" transform="matrix(1.7169674779187405,0,0,1.7169674779187405,-25.7696575235574,-31.162090184918455)" stroke="none" fill="white"><path d="M68.054 37.04c-.066 0-.13.011-.194.011-.711-10.388-9.469-18.693-19.984-18.693-11.058 0-20.054 8.996-20.054 20.054 0 2.509.473 4.926 1.362 7.22a12.948 12.948 0 0 0-1.487-.095c-6.958 0-12.62 5.661-12.62 12.619s5.662 12.62 12.62 12.62h41.418v-.053c8.808-.553 15.806-7.872 15.806-16.815.001-9.303-7.565-16.868-16.867-16.868zm0 31.86H27.698c-5.925 0-10.745-4.819-10.745-10.745 0-5.925 4.819-10.744 10.745-10.744.943 0 1.878.123 2.785.362.075.022.148.015.223.017.006 0 .009.003.015.003l.011-.001a.913.913 0 0 0 .848-.586c.009-.021.024-.039.029-.059.005-.015.017-.026.02-.041.017-.062.007-.121.011-.183.003-.051.013-.099.009-.152-.008-.064-.029-.123-.05-.183-.015-.05-.015-.099-.038-.146a18.019 18.019 0 0 1-1.864-8.031c0-10.023 8.155-18.179 18.179-18.179 9.531 0 17.468 7.526 18.115 16.941a16.7 16.7 0 0 0-5.224 1.518.937.937 0 1 0 .81 1.691 14.867 14.867 0 0 1 6.478-1.468c8.267 0 14.993 6.725 14.993 14.992-.001 8.269-6.727 14.994-14.994 14.994z"></path><ellipse cx="40.625" cy="49.062" rx="1.875" ry="2.812"></ellipse><ellipse cx="59.375" cy="49.062" rx="1.875" ry="2.812"></ellipse><path d="M59.375 53.75h-18.75a1.875 1.875 0 0 0-1.805 2.377c.079.285 2.049 6.998 11.181 6.998 9.133 0 11.102-6.713 11.182-6.998a1.875 1.875 0 0 0-1.808-2.377z"></path></g><!----></svg>