<svg data-v-423bf9ae="" xmlns="http://www.w3.org/2000/svg" viewBox="0 0 377.5031501466917 60" class="font"><!----><!----><!----><g data-v-423bf9ae="" id="2800af35-020f-426e-a5f2-61e852c61c3d" fill="black" transform="matrix(3.7641155319627186,0,0,3.7641155319627186,-1.5056473585145795,-8.657466259282977)"><path d="M13.46 11.58L13.46 11.58L13.46 11.58Q13.46 12.60 13.11 13.15L13.11 13.15L15.13 13.15L15.13 13.15Q15.00 13.19 14.83 13.34L14.83 13.34L14.83 13.34Q14.66 13.49 14.48 13.65L14.48 13.65L14.48 13.65Q13.99 14.08 13.80 14.08L13.80 14.08L11.77 14.08L11.77 14.08Q12.11 13.58 12.11 12.70L12.11 12.70L12.11 12.70Q12.11 11.83 12.07 11.02L12.07 11.02L12.07 11.02Q12.02 10.21 12.00 9.63L12.00 9.63L12.00 9.63Q11.97 9.04 11.95 8.66L11.95 8.66L11.95 8.66Q11.94 8.28 11.92 7.89L11.92 7.89L11.92 7.89Q11.87 6.75 11.85 6.38L11.85 6.38L11.85 6.38Q11.24 7.44 10.61 8.58L10.61 8.58L10.61 8.58Q9.97 9.71 9.52 10.50L9.52 10.50L9.52 10.50Q9.07 11.29 8.81 11.80L8.81 11.80L8.81 11.80Q8.54 12.31 8.25 12.82L8.25 12.82L8.25 12.82Q8.19 12.92 7.60 13.30L7.60 13.30L7.60 13.30Q7.01 13.69 6.92 13.75L6.92 13.75L6.92 13.75Q6.55 12.60 5.98 11.61L5.98 11.61L5.98 11.61Q5.41 10.62 5.04 10.02L5.04 10.02L5.04 10.02Q4.68 9.43 4.32 8.83L4.32 8.83L3.23 7.02L3.23 7.02Q2.94 10.55 2.79 11.34L2.79 11.34L2.79 11.34Q2.63 12.13 2.49 12.53L2.49 12.53L2.49 12.53Q2.35 12.93 2.14 13.15L2.14 13.15L4.33 13.15L4.33 13.15Q3.19 14.08 3.00 14.08L3.00 14.08L0.75 14.08L0.75 14.08Q1.15 13.69 1.42 12.35L1.42 12.35L1.42 12.35Q1.72 10.86 2.12 5.17L2.12 5.17L0.40 5.17L0.40 5.17Q0.90 4.68 1.59 4.30L1.59 4.30L1.59 4.30Q1.68 4.25 1.73 4.25L1.73 4.25L3.45 4.25L3.45 4.25Q4.03 5.20 4.59 6.14L4.59 6.14L5.73 8.03L5.73 8.03Q6.02 8.51 6.31 8.99L6.31 8.99L6.31 8.99Q6.60 9.46 6.88 9.94L6.88 9.94L6.88 9.94Q7.56 11.11 7.91 11.92L7.91 11.92L7.91 11.92Q8.56 10.78 9.44 9.17L9.44 9.17L9.44 9.17Q11.01 6.28 11.77 4.97L11.77 4.97L11.77 4.97Q11.90 4.76 12.78 4.24L12.78 4.24L12.78 4.24Q12.98 4.12 13.10 4.04L13.10 4.04L13.10 4.04Q13.26 7.03 13.33 8.78L13.33 8.78L13.33 8.78Q13.41 10.53 13.43 10.88L13.43 10.88L13.43 10.88Q13.46 11.22 13.46 11.58ZM16.26 3.41L17.59 2.48L17.63 3.26L17.63 3.62L17.63 3.62Q17.63 3.94 17.55 4.02L17.55 4.02L17.55 4.02Q17.47 4.09 17.37 4.16L17.37 4.16L17.37 4.16Q16.99 4.43 16.26 4.89L16.26 4.89L16.26 4.89Q16.30 4.21 16.30 4.19L16.30 4.19L16.30 4.19Q16.30 4.16 16.26 3.41L16.26 3.41ZM19.02 13.24L19.02 13.24L19.02 13.24Q18.81 13.41 18.62 13.58L18.62 13.58L18.62 13.58Q18.42 13.75 18.21 13.89L18.21 13.89L18.21 13.89Q17.72 14.21 17.27 14.21L17.27 14.21L17.27 14.21Q16.84 14.21 16.67 14.08L16.67 14.08L16.67 14.08Q16.32 13.82 16.32 13.13L16.32 13.13L16.32 9.88L16.32 9.88Q16.32 9.15 16.06 8.93L16.06 8.93L16.06 8.93Q15.93 8.83 15.79 8.83L15.79 8.83L15.79 8.83Q15.65 8.83 15.55 8.84L15.55 8.84L15.55 8.84Q15.45 8.86 15.35 8.88L15.35 8.88L15.35 8.88Q15.24 8.90 15.13 8.92L15.13 8.92L15.13 8.92Q15.48 8.65 15.77 8.44L15.77 8.44L15.77 8.44Q16.07 8.23 16.28 8.09L16.28 8.09L16.28 8.09Q16.50 7.94 16.87 7.68L16.87 7.68L16.87 7.68Q17.25 7.42 17.65 7.21L17.65 7.21L17.65 12.03L17.65 12.03Q17.65 12.73 17.74 12.91L17.74 12.91L17.74 12.91Q17.93 13.29 18.59 13.29L18.59 13.29L18.59 13.29Q18.76 13.29 19.02 13.24ZM31.36 13.15L33.55 13.15L33.55 13.15Q33.47 13.16 33.11 13.48L33.11 13.48L33.11 13.48Q32.40 14.08 32.22 14.08L32.22 14.08L29.91 14.08L29.91 14.08Q30.27 13.68 30.37 13.44L30.37 13.44L30.37 13.44Q30.52 13.06 30.52 12.45L30.52 12.45L30.52 9.42L25.43 9.42L25.43 11.43L25.43 11.43Q25.43 12.08 25.37 12.31L25.37 12.31L25.37 12.31Q25.27 12.67 24.94 13.15L24.94 13.15L27.13 13.15L27.13 13.15Q27.04 13.17 26.71 13.45L26.71 13.45L26.71 13.45Q26.38 13.74 26.24 13.84L26.24 13.84L26.24 13.84Q25.94 14.08 25.80 14.08L25.80 14.08L23.48 14.08L23.48 14.08Q23.99 13.69 24.07 13.00L24.07 13.00L24.07 13.00Q24.10 12.76 24.10 12.45L24.10 12.45L24.10 5.17L22.82 5.17L23.08 4.96L23.08 4.96Q23.95 4.25 24.14 4.25L24.14 4.25L27.13 4.25L27.13 4.25Q27.05 4.25 26.71 4.54L26.71 4.54L26.71 4.54Q26.38 4.83 26.24 4.94L26.24 4.94L26.24 4.94Q25.94 5.17 25.80 5.17L25.80 5.17L25.43 5.17L25.43 8.49L30.52 8.49L30.52 5.17L29.24 5.17L29.50 4.96L29.50 4.96Q30.37 4.25 30.57 4.25L30.57 4.25L33.55 4.25L33.55 4.25Q33.47 4.25 33.13 4.54L33.13 4.54L33.13 4.54Q32.80 4.83 32.67 4.94L32.67 4.94L32.67 4.94Q32.35 5.17 32.22 5.17L32.22 5.17L31.85 5.17L31.85 11.43L31.85 11.43Q31.85 12.08 31.79 12.31L31.79 12.31L31.79 12.31Q31.69 12.68 31.36 13.15L31.36 13.15ZM39.93 8.18L39.93 8.18L39.93 8.18Q40.28 8.57 40.47 9.08L40.47 9.08L40.47 9.08Q40.67 9.59 40.67 10.10L40.67 10.10L40.67 10.10Q40.67 10.62 40.52 11.10L40.52 11.10L40.52 11.10Q40.37 11.59 40.10 12.04L40.10 12.04L40.10 12.04Q39.83 12.50 39.46 12.89L39.46 12.89L39.46 12.89Q39.09 13.28 38.66 13.58L38.66 13.58L38.66 13.58Q37.73 14.20 36.78 14.20L36.78 14.20L36.78 14.20Q35.66 14.20 34.88 13.33L34.88 13.33L34.88 13.33Q34.13 12.50 34.13 11.38L34.13 11.38L34.13 11.38Q34.13 10.42 34.71 9.45L34.71 9.45L34.71 9.45Q35.57 7.99 37.07 7.48L37.07 7.48L37.07 7.48Q37.55 7.31 38.08 7.31L38.08 7.31L38.08 7.31Q38.62 7.31 39.10 7.54L39.10 7.54L39.10 7.54Q39.58 7.78 39.93 8.18ZM36.70 8.22L36.70 8.22L36.70 8.22Q36.01 8.22 35.70 8.89L35.70 8.89L35.70 8.89Q35.45 9.41 35.45 10.06L35.45 10.06L35.45 10.06Q35.45 10.72 35.63 11.28L35.63 11.28L35.63 11.28Q35.80 11.85 36.14 12.29L36.14 12.29L36.14 12.29Q36.90 13.29 38.10 13.29L38.10 13.29L38.10 13.29Q38.79 13.29 39.11 12.59L39.11 12.59L39.11 12.59Q39.33 12.07 39.33 11.40L39.33 11.40L39.33 11.40Q39.33 10.08 38.60 9.15L38.60 9.15L38.60 9.15Q37.86 8.22 36.70 8.22ZM44.66 8.78L44.66 8.78L44.66 8.78Q44.79 8.68 44.79 8.57L44.79 8.57L44.79 8.57Q44.79 8.46 44.66 8.40L44.66 8.40L44.66 8.40Q44.53 8.34 44.36 8.31L44.36 8.31L44.36 8.31Q44.09 8.25 43.86 8.25L43.86 8.25L43.86 8.25Q43.63 8.25 43.51 8.27L43.51 8.27L43.51 8.27Q43.38 8.30 43.29 8.36L43.29 8.36L43.29 8.36Q43.10 8.49 43.10 8.82L43.10 8.82L43.10 8.82Q43.10 9.15 43.24 9.35L43.24 9.35L43.24 9.35Q43.39 9.56 43.62 9.71L43.62 9.71L43.62 9.71Q43.86 9.85 44.16 9.95L44.16 9.95L44.16 9.95Q44.46 10.04 44.77 10.13L44.77 10.13L44.77 10.13Q45.08 10.23 45.38 10.34L45.38 10.34L45.38 10.34Q45.68 10.45 45.92 10.62L45.92 10.62L45.92 10.62Q46.44 11.01 46.44 11.68L46.44 11.68L46.44 11.68Q46.44 12.34 45.81 12.97L45.81 12.97L45.81 12.97Q45.27 13.51 44.39 13.89L44.39 13.89L44.39 13.89Q43.57 14.25 42.92 14.25L42.92 14.25L42.92 14.25Q42.14 14.25 41.67 13.92L41.67 13.92L41.67 13.92Q41.50 13.79 41.50 13.60L41.50 13.60L41.50 13.60Q41.50 13.41 41.68 13.24L41.68 13.24L41.68 13.24Q41.86 13.08 42.10 12.94L42.10 12.94L42.10 12.94Q42.33 12.80 42.57 12.68L42.57 12.68L42.57 12.68Q42.81 12.55 42.94 12.41L42.94 12.41L42.94 12.41Q42.81 12.54 42.81 12.71L42.81 12.71L42.81 12.71Q42.81 12.89 43.00 13.01L43.00 13.01L43.00 13.01Q43.20 13.13 43.46 13.19L43.46 13.19L43.46 13.19Q43.91 13.30 44.32 13.30L44.32 13.30L44.32 13.30Q44.74 13.30 44.93 13.15L44.93 13.15L44.93 13.15Q45.12 13.00 45.12 12.63L45.12 12.63L45.12 12.63Q45.12 12.27 44.97 12.04L44.97 12.04L44.97 12.04Q44.83 11.81 44.60 11.65L44.60 11.65L44.60 11.65Q44.37 11.48 44.06 11.37L44.06 11.37L44.06 11.37Q43.76 11.26 43.45 11.15L43.45 11.15L43.45 11.15Q43.14 11.05 42.84 10.94L42.84 10.94L42.84 10.94Q42.54 10.83 42.31 10.67L42.31 10.67L42.31 10.67Q41.79 10.32 41.79 9.76L41.79 9.76L41.79 9.76Q41.79 9.23 42.42 8.62L42.42 8.62L42.42 8.62Q42.96 8.10 43.56 7.81L43.56 7.81L43.56 7.81Q44.58 7.31 45.10 7.31L45.10 7.31L45.10 7.31Q45.64 7.31 45.88 7.43L45.88 7.43L45.88 7.43Q46.12 7.55 46.12 7.63L46.12 7.63L46.12 7.63Q46.12 7.72 46.06 7.79L46.06 7.79L46.06 7.79Q46.01 7.85 45.93 7.91L45.93 7.91L45.93 7.91Q45.85 7.97 45.77 8.02L45.77 8.02L45.77 8.02Q45.68 8.07 45.53 8.16L45.53 8.16L45.53 8.16Q45.38 8.26 45.13 8.42L45.13 8.42L45.13 8.42Q44.88 8.58 44.66 8.78ZM48.06 8.16L47.17 8.16L48.06 7.46L48.06 6.49L48.06 6.49Q48.43 6.23 48.59 6.09L48.59 6.09L48.59 6.09Q48.75 5.95 48.86 5.89L48.86 5.89L48.86 5.89Q48.97 5.83 49.08 5.76L49.08 5.76L49.08 5.76Q49.38 5.59 49.40 5.56L49.40 5.56L49.40 7.23L51.58 7.23L51.58 7.23Q51.50 7.23 51.13 7.55L51.13 7.55L51.13 7.55Q50.44 8.16 50.26 8.16L50.26 8.16L49.40 8.16L49.40 11.82L49.40 11.82Q49.40 13.08 50.12 13.28L50.12 13.28L50.12 13.28Q50.34 13.33 50.53 13.33L50.53 13.33L50.53 13.33Q50.85 13.33 51.06 13.24L51.06 13.24L51.06 13.24Q51.28 13.15 51.43 13.07L51.43 13.07L51.43 13.07Q51.01 13.71 50.26 14.04L50.26 14.04L50.26 14.04Q49.87 14.21 49.42 14.21L49.42 14.21L49.42 14.21Q48.97 14.21 48.73 14.05L48.73 14.05L48.73 14.05Q48.48 13.90 48.33 13.64L48.33 13.64L48.33 13.64Q48.06 13.18 48.06 12.41L48.06 12.41L48.06 8.16ZM52.73 3.41L54.06 2.48L54.10 3.26L54.10 3.62L54.10 3.62Q54.10 3.94 54.02 4.02L54.02 4.02L54.02 4.02Q53.94 4.09 53.84 4.16L53.84 4.16L53.84 4.16Q53.46 4.43 52.73 4.89L52.73 4.89L52.73 4.89Q52.77 4.21 52.77 4.19L52.77 4.19L52.77 4.19Q52.77 4.16 52.73 3.41L52.73 3.41ZM55.49 13.24L55.49 13.24L55.49 13.24Q55.28 13.41 55.09 13.58L55.09 13.58L55.09 13.58Q54.89 13.75 54.68 13.89L54.68 13.89L54.68 13.89Q54.19 14.21 53.74 14.21L53.74 14.21L53.74 14.21Q53.31 14.21 53.14 14.08L53.14 14.08L53.14 14.08Q52.79 13.82 52.79 13.13L52.79 13.13L52.79 9.88L52.79 9.88Q52.79 9.15 52.53 8.93L52.53 8.93L52.53 8.93Q52.40 8.83 52.26 8.83L52.26 8.83L52.26 8.83Q52.12 8.83 52.02 8.84L52.02 8.84L52.02 8.84Q51.92 8.86 51.82 8.88L51.82 8.88L51.82 8.88Q51.71 8.90 51.60 8.92L51.60 8.92L51.60 8.92Q51.95 8.65 52.24 8.44L52.24 8.44L52.24 8.44Q52.54 8.23 52.75 8.09L52.75 8.09L52.75 8.09Q52.96 7.94 53.34 7.68L53.34 7.68L53.34 7.68Q53.72 7.42 54.12 7.21L54.12 7.21L54.12 12.03L54.12 12.03Q54.12 12.73 54.21 12.91L54.21 12.91L54.21 12.91Q54.40 13.29 55.06 13.29L55.06 13.29L55.06 13.29Q55.23 13.29 55.49 13.24ZM56.77 13.62L56.77 13.62L56.77 9.22L56.77 9.22Q56.77 8.76 56.65 8.61L56.65 8.61L56.65 8.61Q56.44 8.33 56.06 8.33L56.06 8.33L56.06 8.33Q55.69 8.33 55.39 8.44L55.39 8.44L55.39 8.44Q55.57 8.37 55.86 8.12L55.86 8.12L55.86 8.12Q56.38 7.64 56.60 7.55L56.60 7.55L56.60 7.55Q57.01 7.39 57.32 7.39L57.32 7.39L57.32 7.39Q57.63 7.39 57.79 7.49L57.79 7.49L57.79 7.49Q57.94 7.59 58.01 7.77L58.01 7.77L58.01 7.77Q58.10 7.98 58.10 8.57L58.10 8.57L58.10 8.57Q59.38 7.44 60.49 7.44L60.49 7.44L60.49 7.44Q61.10 7.44 61.55 7.83L61.55 7.83L61.55 7.83Q62.02 8.24 62.02 8.83L62.02 8.83L62.02 12.20L62.02 12.20Q62.02 12.71 62.13 12.90L62.13 12.90L62.13 12.90Q62.34 13.26 62.82 13.26L62.82 13.26L62.82 13.26Q63.09 13.26 63.33 13.16L63.33 13.16L63.33 13.16Q62.73 13.69 62.49 13.84L62.49 13.84L62.49 13.84Q61.96 14.18 61.56 14.18L61.56 14.18L61.56 14.18Q61.16 14.18 60.99 14.04L60.99 14.04L60.99 14.04Q60.83 13.90 60.76 13.68L60.76 13.68L60.76 13.68Q60.68 13.44 60.68 12.70L60.68 12.70L60.68 10.14L60.68 10.14Q60.68 8.92 59.88 8.53L59.88 8.53L59.88 8.53Q59.60 8.39 59.19 8.39L59.19 8.39L59.19 8.39Q58.20 8.39 58.12 9.86L58.12 9.86L58.12 9.86Q58.10 10.23 58.10 10.53L58.10 10.53L58.10 12.64L58.10 12.64Q58.10 13.08 58.37 13.23L58.37 13.23L58.37 13.23Q58.46 13.30 58.60 13.30L58.60 13.30L58.60 13.30Q58.75 13.30 58.91 13.23L58.91 13.23L58.91 13.23Q58.76 13.35 58.56 13.52L58.56 13.52L58.56 13.52Q58.37 13.69 58.15 13.85L58.15 13.85L58.15 13.85Q57.61 14.22 57.29 14.22L57.29 14.22L57.29 14.22Q56.77 14.22 56.77 13.62ZM67.74 7.39L69.73 7.44L69.73 7.44Q70.10 7.44 70.33 7.29L70.33 7.29L70.33 7.29Q70.32 7.53 69.80 7.87L69.80 7.87L69.80 7.87Q69.37 8.16 69.06 8.23L69.06 8.23L69.06 8.23Q69.32 8.73 69.32 9.32L69.32 9.32L69.32 9.32Q69.32 9.91 69.09 10.36L69.09 10.36L69.09 10.36Q68.87 10.82 68.52 11.17L68.52 11.17L68.52 11.17Q68.17 11.52 67.77 11.78L67.77 11.78L67.77 11.78Q67.37 12.04 67.02 12.25L67.02 12.25L67.02 12.25Q66.68 12.46 66.45 12.65L66.45 12.65L66.45 12.65Q66.22 12.83 66.22 13.01L66.22 13.01L66.22 13.01Q66.22 13.19 66.30 13.32L66.30 13.32L66.30 13.32Q66.38 13.45 66.50 13.55L66.50 13.55L66.50 13.55Q66.73 13.73 66.98 13.83L66.98 13.83L66.98 13.83Q67.22 13.92 67.54 14.03L67.54 14.03L67.54 14.03Q67.85 14.14 68.20 14.29L68.20 14.29L68.20 14.29Q68.56 14.44 68.93 14.61L68.93 14.61L68.93 14.61Q69.30 14.79 69.59 15.00L69.59 15.00L69.59 15.00Q70.26 15.47 70.26 15.95L70.26 15.95L70.26 15.95Q70.26 16.43 69.56 16.98L69.56 16.98L69.56 16.98Q68.50 17.82 66.81 18.14L66.81 18.14L66.81 18.14Q66.27 18.24 65.91 18.24L65.91 18.24L65.91 18.24Q65.55 18.24 65.29 18.21L65.29 18.21L65.29 18.21Q65.03 18.19 64.75 18.14L64.75 18.14L64.75 18.14Q64.48 18.09 64.21 18.01L64.21 18.01L64.21 18.01Q63.94 17.92 63.73 17.80L63.73 17.80L63.73 17.80Q63.26 17.53 63.26 17.18L63.26 17.18L63.26 17.18Q63.26 16.83 63.39 16.57L63.39 16.57L63.39 16.57Q63.52 16.31 63.73 16.09L63.73 16.09L63.73 16.09Q63.94 15.87 64.21 15.70L64.21 15.70L64.21 15.70Q64.48 15.52 64.75 15.36L64.75 15.36L64.75 15.36Q65.02 15.21 65.28 15.08L65.28 15.08L65.28 15.08Q65.53 14.94 65.71 14.82L65.71 14.82L65.71 14.82Q64.91 14.49 64.91 14.03L64.91 14.03L64.91 14.03Q64.91 13.57 65.91 12.90L65.91 12.90L65.91 12.90Q66.14 12.74 66.29 12.63L66.29 12.63L66.29 12.63Q65.99 12.72 65.63 12.72L65.63 12.72L65.63 12.72Q65.26 12.72 64.92 12.53L64.92 12.53L64.92 12.53Q64.58 12.35 64.34 12.04L64.34 12.04L64.34 12.04Q63.85 11.42 63.85 10.56L63.85 10.56L63.85 10.56Q63.85 9.70 64.50 8.93L64.50 8.93L64.50 8.93Q65.06 8.25 66.01 7.81L66.01 7.81L66.01 7.81Q66.90 7.39 67.74 7.39L67.74 7.39ZM65.37 8.59L65.37 8.59L65.37 8.59Q65.19 8.86 65.19 9.47L65.19 9.47L65.19 9.47Q65.19 10.08 65.30 10.47L65.30 10.47L65.30 10.47Q65.41 10.86 65.64 11.16L65.64 11.16L65.64 11.16Q66.14 11.81 67.06 11.81L67.06 11.81L67.06 11.81Q67.58 11.81 67.82 11.29L67.82 11.29L67.82 11.29Q68.00 10.92 68.00 10.41L68.00 10.41L68.00 10.41Q68.00 9.44 67.57 8.88L67.57 8.88L67.57 8.88Q67.15 8.33 66.35 8.33L66.35 8.33L66.35 8.33Q65.55 8.33 65.37 8.59ZM68.58 17.09L68.58 17.09L68.58 17.09Q68.75 16.99 68.82 16.86L68.82 16.86L68.82 16.86Q68.89 16.72 68.89 16.50L68.89 16.50L68.89 16.50Q68.89 16.28 68.64 16.05L68.64 16.05L68.64 16.05Q68.39 15.83 67.98 15.64L67.98 15.64L67.98 15.64Q67.57 15.46 66.01 14.93L66.01 14.93L66.01 14.93Q65.39 15.20 65.14 15.40L65.14 15.40L65.14 15.40Q64.63 15.83 64.63 16.36L64.63 16.36L64.63 16.36Q64.63 16.76 66.51 17.16L66.51 17.16L66.51 17.16Q67.18 17.30 67.50 17.30L67.50 17.30L67.50 17.30Q67.83 17.30 68.12 17.25L68.12 17.25L68.12 17.25Q68.41 17.19 68.58 17.09ZM76.79 5.17L73.21 5.17L73.21 5.17Q74.35 4.25 74.54 4.25L74.54 4.25L82.25 4.25L82.25 4.25Q82.16 4.26 81.83 4.55L81.83 4.55L81.83 4.55Q81.50 4.83 81.38 4.94L81.38 4.94L81.38 4.94Q81.06 5.17 80.92 5.17L80.92 5.17L78.12 5.17L78.12 11.43L78.12 11.43Q78.12 12.26 77.84 12.80L77.84 12.80L77.84 12.80Q77.72 13.03 77.57 13.15L77.57 13.15L79.82 13.15L79.82 13.15Q79.73 13.17 79.40 13.45L79.40 13.45L79.40 13.45Q79.07 13.74 78.94 13.84L78.94 13.84L78.94 13.84Q78.63 14.08 78.49 14.08L78.49 14.08L76.11 14.08L76.11 14.08Q76.52 13.71 76.62 13.46L76.62 13.46L76.62 13.46Q76.79 13.06 76.79 12.45L76.79 12.45L76.79 5.17ZM86.32 12.82L86.32 12.82L86.32 12.82Q85.39 13.86 84 14.12L84 14.12L84 14.12Q83.68 14.18 83.21 14.18L83.21 14.18L83.21 14.18Q82.74 14.18 82.32 13.91L82.32 13.91L82.32 13.91Q81.90 13.65 81.63 13.23L81.63 13.23L81.63 13.23Q81.13 12.43 81.13 11.27L81.13 11.27L81.13 11.27Q81.13 10.50 81.72 9.57L81.72 9.57L81.72 9.57Q82.29 8.65 83.12 8.04L83.12 8.04L83.12 8.04Q84.01 7.38 84.80 7.38L84.80 7.38L84.80 7.38Q85.21 7.38 85.49 7.68L85.49 7.68L85.49 7.68Q85.75 7.98 85.75 8.35L85.75 8.35L85.75 8.35Q85.75 8.73 85.59 9.05L85.59 9.05L85.59 9.05Q85.42 9.37 85.16 9.67L85.16 9.67L85.16 9.67Q84.90 9.97 84.56 10.24L84.56 10.24L84.56 10.24Q84.22 10.52 83.86 10.76L83.86 10.76L83.86 10.76Q83.36 11.10 82.61 11.53L82.61 11.53L82.61 11.53Q82.82 12.36 83.38 12.81L83.38 12.81L83.38 12.81Q83.93 13.25 84.81 13.25L84.81 13.25L84.81 13.25Q85.54 13.25 86.32 12.82ZM84.26 10.08L84.26 10.08L84.26 10.08Q84.44 9.78 84.44 9.50L84.44 9.50L84.44 9.50Q84.44 9.22 84.38 9.03L84.38 9.03L84.38 9.03Q84.32 8.83 84.21 8.68L84.21 8.68L84.21 8.68Q83.94 8.34 83.51 8.34L83.51 8.34L83.51 8.34Q82.48 8.34 82.48 10.46L82.48 10.46L82.48 10.46Q82.48 10.83 82.54 11.20L82.54 11.20L82.54 11.20Q83.74 10.87 84.26 10.08ZM91.50 8.79L91.50 8.79L91.50 8.79Q91.64 8.65 91.64 8.59L91.64 8.59L91.64 8.59Q91.64 8.52 91.54 8.46L91.54 8.46L91.54 8.46Q91.45 8.39 91.30 8.34L91.30 8.34L91.30 8.34Q91.16 8.29 90.98 8.25L90.98 8.25L90.98 8.25Q90.80 8.20 90.64 8.18L90.64 8.18L90.64 8.18Q90.29 8.11 89.97 8.11L89.97 8.11L89.97 8.11Q89.65 8.11 89.31 8.30L89.31 8.30L89.31 8.30Q88.98 8.50 88.79 8.82L88.79 8.82L88.79 8.82Q88.44 9.39 88.44 10.21L88.44 10.21L88.44 10.21Q88.44 11.03 88.61 11.56L88.61 11.56L88.61 11.56Q88.79 12.09 89.13 12.47L89.13 12.47L89.13 12.47Q89.85 13.26 91.16 13.26L91.16 13.26L91.16 13.26Q91.99 13.26 92.73 12.85L92.73 12.85L92.73 12.85Q91.87 13.78 90.55 14.10L90.55 14.10L90.55 14.10Q90.13 14.19 89.63 14.19L89.63 14.19L89.63 14.19Q89.12 14.19 88.63 13.98L88.63 13.98L88.63 13.98Q88.14 13.77 87.79 13.39L87.79 13.39L87.79 13.39Q87.09 12.62 87.09 11.39L87.09 11.39L87.09 11.39Q87.09 10.39 87.78 9.38L87.78 9.38L87.78 9.38Q88.80 7.90 90.47 7.37L90.47 7.37L90.47 7.37Q90.99 7.20 91.41 7.20L91.41 7.20L91.41 7.20Q92.41 7.20 92.90 7.57L92.90 7.57L92.90 7.57Q92.96 7.61 92.96 7.68L92.96 7.68L92.96 7.68Q92.96 7.92 91.96 8.57L91.96 8.57L91.96 8.57Q91.60 8.79 91.50 8.79ZM95.44 10.53L95.44 12.59L95.44 12.59Q95.44 13.28 95.84 13.28L95.84 13.28L95.84 13.28Q95.98 13.28 96.26 13.16L96.26 13.16L96.26 13.16Q95.99 13.75 95.46 14.05L95.46 14.05L95.46 14.05Q95.18 14.21 94.88 14.19L94.88 14.19L94.88 14.19Q94.57 14.18 94.44 14.03L94.44 14.03L94.44 14.03Q94.30 13.88 94.23 13.67L94.23 13.67L94.23 13.67Q94.12 13.33 94.12 12.80L94.12 12.80L94.12 5.00L94.12 5.00Q94.12 4.27 93.86 4.03L93.86 4.03L93.86 4.03Q93.75 3.92 93.57 3.92L93.57 3.92L93.57 3.92Q93.28 3.92 92.93 4.02L92.93 4.02L92.93 4.02Q93.76 3.36 95.44 2.30L95.44 2.30L95.44 8.57L95.44 8.57Q96.30 7.82 97.19 7.55L97.19 7.55L97.19 7.55Q97.52 7.44 97.83 7.44L97.83 7.44L97.83 7.44Q98.14 7.44 98.41 7.54L98.41 7.54L98.41 7.54Q98.69 7.64 98.91 7.82L98.91 7.82L98.91 7.82Q99.39 8.22 99.39 8.83L99.39 8.83L99.39 12.30L99.39 12.30Q99.39 13.21 99.83 13.30L99.83 13.30L99.83 13.30Q99.96 13.33 100.09 13.33L100.09 13.33L100.09 13.33Q100.30 13.33 100.69 13.16L100.69 13.16L100.69 13.16Q100.12 13.88 99.37 14.11L99.37 14.11L99.37 14.11Q99.11 14.19 98.81 14.19L98.81 14.19L98.81 14.19Q98.51 14.19 98.35 14.05L98.35 14.05L98.35 14.05Q98.18 13.90 98.12 13.69L98.12 13.69L98.12 13.69Q98.06 13.47 98.06 13.21L98.06 13.21L98.06 10.14L98.06 10.14Q98.06 9.10 97.74 8.74L97.74 8.74L97.74 8.74Q97.45 8.39 96.65 8.39L96.65 8.39L96.65 8.39Q95.59 8.39 95.47 9.84L95.47 9.84L95.47 9.84Q95.44 10.21 95.44 10.53L95.44 10.53Z"></path></g><!----><!----></svg>