<svg data-v-423bf9ae="" xmlns="http://www.w3.org/2000/svg" viewBox="0 0 301.33442914227527 60" class="font"><!----><!----><defs data-v-423bf9ae=""><linearGradient data-v-423bf9ae="" gradientTransform="rotate(25)" id="2d810cfc-2cce-4f84-a773-4e6517ce9c67" x1="0%" y1="0%" x2="100%" y2="0%"><stop data-v-423bf9ae="" offset="0%" style="stop-color: rgb(201, 58, 95); stop-opacity: 1;"></stop><stop data-v-423bf9ae="" offset="100%" style="stop-color: rgb(239, 176, 202); stop-opacity: 1;"></stop></linearGradient></defs><g data-v-423bf9ae="" id="a1fe786e-d901-4100-8eca-d87a4c6a8638" fill="url(#2d810cfc-2cce-4f84-a773-4e6517ce9c67)" transform="matrix(4.942339234199546,0,0,4.942339234199546,7.8583223500559996,-17.29818684286125)"><path d="M-0.72 15.57L-1.59 15.34L-0.97 14.19L0.41 14.97L0.41 14.97Q1.01 14.97 1.27 13.99L1.27 13.99L1.27 13.99Q1.53 13.02 1.53 10.88L1.53 10.88L1.53 5.39L1.44 4.18L0.49 3.95L0.49 3.64L4.12 3.64L4.12 3.95L3.13 4.18L3.04 5.39L3.04 10.83L3.04 10.83Q3.04 12.29 2.57 13.36L2.57 13.36L2.57 13.36Q2.11 14.44 1.26 15.00L1.26 15.00L1.26 15.00Q0.41 15.57-0.72 15.57L-0.72 15.57ZM8.12 12.70L8.12 12.70Q7.18 12.70 6.45 12.30L6.45 12.30L6.45 12.30Q5.71 11.91 5.31 11.22L5.31 11.22L5.31 11.22Q4.91 10.53 4.91 9.67L4.91 9.67L4.91 9.67Q4.91 8.80 5.33 8.09L5.33 8.09L5.33 8.09Q5.76 7.38 6.49 6.97L6.49 6.97L6.49 6.97Q7.22 6.55 8.09 6.55L8.09 6.55L8.09 6.55Q9.04 6.55 9.78 6.94L9.78 6.94L9.78 6.94Q10.51 7.33 10.92 8.02L10.92 8.02L10.92 8.02Q11.33 8.71 11.33 9.56L11.33 9.56L11.33 9.56Q11.33 10.42 10.90 11.14L10.90 11.14L10.90 11.14Q10.47 11.85 9.73 12.28L9.73 12.28L9.73 12.28Q9.00 12.70 8.12 12.70L8.12 12.70ZM8.26 12.32L8.26 12.32Q9.08 12.32 9.42 11.59L9.42 11.59L9.42 11.59Q9.76 10.87 9.76 9.87L9.76 9.87L9.76 9.87Q9.76 9.19 9.56 8.50L9.56 8.50L9.56 8.50Q9.35 7.82 8.94 7.37L8.94 7.37L8.94 7.37Q8.53 6.92 7.96 6.92L7.96 6.92L7.96 6.92Q7.14 6.92 6.80 7.64L6.80 7.64L6.80 7.64Q6.47 8.37 6.47 9.39L6.47 9.39L6.47 9.39Q6.47 10.08 6.67 10.75L6.67 10.75L6.67 10.75Q6.86 11.43 7.27 11.87L7.27 11.87L7.27 11.87Q7.68 12.32 8.26 12.32L8.26 12.32ZM14.41 12.74L12.73 12.48L12.56 10.99L12.89 10.99L13.54 11.98L13.54 11.98Q14.03 12.32 14.59 12.32L14.59 12.32L14.59 12.32Q15.05 12.32 15.33 12.07L15.33 12.07L15.33 12.07Q15.61 11.83 15.61 11.42L15.61 11.42L15.61 11.42Q15.61 10.96 15.31 10.71L15.31 10.71L15.31 10.71Q15.00 10.46 14.36 10.16L14.36 10.16L13.89 9.93L13.89 9.93Q13.21 9.56 12.88 9.24L12.88 9.24L12.88 9.24Q12.55 8.93 12.55 8.39L12.55 8.39L12.55 8.39Q12.55 7.85 12.91 7.44L12.91 7.44L12.91 7.44Q13.26 7.04 13.82 6.84L13.82 6.84L13.82 6.84Q14.38 6.63 14.97 6.63L14.97 6.63L16.52 6.85L16.75 8.31L16.42 8.31L15.87 7.42L15.87 7.42Q15.48 7.05 14.92 7.05L14.92 7.05L14.92 7.05Q14.44 7.05 14.16 7.27L14.16 7.27L14.16 7.27Q13.88 7.49 13.88 7.89L13.88 7.89L13.88 7.89Q13.88 8.23 14.20 8.48L14.20 8.48L14.20 8.48Q14.52 8.72 14.88 8.90L14.88 8.90L14.88 8.90Q15.24 9.08 15.35 9.13L15.35 9.13L15.35 9.13Q15.91 9.42 16.21 9.60L16.21 9.60L16.21 9.60Q16.50 9.79 16.73 10.11L16.73 10.11L16.73 10.11Q16.97 10.43 16.97 10.88L16.97 10.88L16.97 10.88Q16.97 11.76 16.23 12.25L16.23 12.25L16.23 12.25Q15.49 12.74 14.41 12.74L14.41 12.74ZM20.07 12.74L18.39 12.48L18.22 10.99L18.55 10.99L19.20 11.98L19.20 11.98Q19.69 12.32 20.25 12.32L20.25 12.32L20.25 12.32Q20.71 12.32 20.99 12.07L20.99 12.07L20.99 12.07Q21.27 11.83 21.27 11.42L21.27 11.42L21.27 11.42Q21.27 10.96 20.97 10.71L20.97 10.71L20.97 10.71Q20.66 10.46 20.02 10.16L20.02 10.16L19.55 9.93L19.55 9.93Q18.87 9.56 18.54 9.24L18.54 9.24L18.54 9.24Q18.21 8.93 18.21 8.39L18.21 8.39L18.21 8.39Q18.21 7.85 18.57 7.44L18.57 7.44L18.57 7.44Q18.92 7.04 19.48 6.84L19.48 6.84L19.48 6.84Q20.04 6.63 20.63 6.63L20.63 6.63L22.18 6.85L22.41 8.31L22.08 8.31L21.53 7.42L21.53 7.42Q21.14 7.05 20.58 7.05L20.58 7.05L20.58 7.05Q20.10 7.05 19.82 7.27L19.82 7.27L19.82 7.27Q19.54 7.49 19.54 7.89L19.54 7.89L19.54 7.89Q19.54 8.23 19.86 8.48L19.86 8.48L19.86 8.48Q20.18 8.72 20.54 8.90L20.54 8.90L20.54 8.90Q20.90 9.08 21.01 9.13L21.01 9.13L21.01 9.13Q21.57 9.42 21.87 9.60L21.87 9.60L21.87 9.60Q22.16 9.79 22.39 10.11L22.39 10.11L22.39 10.11Q22.63 10.43 22.63 10.88L22.63 10.88L22.63 10.88Q22.63 11.76 21.89 12.25L21.89 12.25L21.89 12.25Q21.15 12.74 20.07 12.74L20.07 12.74ZM26.10 12.70L26.10 12.70Q25.39 12.70 24.92 12.31L24.92 12.31L24.92 12.31Q24.45 11.92 24.45 11.01L24.45 11.01L24.45 7.23L23.43 7.23L23.41 6.90L24.51 6.18L25.40 4.76L25.85 4.76L25.85 6.77L27.69 6.77L27.74 6.86L27.51 7.23L25.85 7.23L25.85 10.86L25.85 10.86Q25.85 11.42 26.08 11.68L26.08 11.68L26.08 11.68Q26.30 11.95 26.81 11.95L26.81 11.95L27.64 11.63L27.71 11.77L27.63 11.96L26.10 12.70ZM30.11 5.03L30.11 5.03Q29.75 5.03 29.50 4.81L29.50 4.81L29.50 4.81Q29.26 4.59 29.26 4.28L29.26 4.28L29.26 4.28Q29.26 3.96 29.51 3.73L29.51 3.73L29.51 3.73Q29.76 3.50 30.11 3.50L30.11 3.50L30.11 3.50Q30.46 3.50 30.71 3.73L30.71 3.73L30.71 3.73Q30.97 3.96 30.97 4.28L30.97 4.28L30.97 4.28Q30.97 4.59 30.71 4.81L30.71 4.81L30.71 4.81Q30.46 5.03 30.11 5.03L30.11 5.03ZM28.48 12.61L28.48 12.33L29.42 12.10L29.53 10.90L29.53 8.68L29.42 7.71L28.46 7.45L28.46 7.18L30.90 6.55L31.06 6.73L30.95 7.55L30.95 10.90L31.04 12.10L31.94 12.33L31.94 12.61L28.48 12.61ZM32.74 12.61L32.74 12.33L33.69 12.10L33.80 10.90L33.80 8.75L33.69 7.78L32.73 7.52L32.73 7.25L35.15 6.62L35.30 6.78L35.18 7.55L35.26 7.74L35.26 7.74Q35.62 7.36 36.18 6.99L36.18 6.99L36.18 6.99Q36.75 6.63 37.35 6.63L37.35 6.63L37.35 6.63Q38.12 6.63 38.52 6.94L38.52 6.94L38.52 6.94Q38.92 7.25 39.07 7.87L39.07 7.87L39.07 7.87Q39.22 8.49 39.22 9.56L39.22 9.56L39.22 10.90L39.32 12.10L40.28 12.33L40.28 12.61L36.91 12.61L36.91 12.33L37.75 12.10L37.84 10.90L37.84 9.53L37.84 9.53Q37.84 8.49 37.57 7.97L37.57 7.97L37.57 7.97Q37.30 7.45 36.59 7.45L36.59 7.45L35.18 8.27L35.18 10.90L35.27 12.10L36.15 12.33L36.15 12.61L32.74 12.61ZM43.24 15.64L43.24 15.64Q42.23 15.64 41.52 15.22L41.52 15.22L41.52 15.22Q40.81 14.81 40.80 14.12L40.80 14.12L42.30 12.70L42.30 12.70Q41.77 12.54 41.49 12.23L41.49 12.23L41.49 12.23Q41.22 11.92 41.21 11.53L41.21 11.53L42.44 10.34L42.44 10.34Q41.81 10.08 41.47 9.60L41.47 9.60L41.47 9.60Q41.13 9.13 41.13 8.60L41.13 8.60L41.13 8.60Q41.13 8.09 41.45 7.64L41.45 7.64L41.45 7.64Q41.78 7.19 42.36 6.91L42.36 6.91L42.36 6.91Q42.93 6.63 43.61 6.63L43.61 6.63L43.61 6.63Q43.98 6.63 44.36 6.75L44.36 6.75L44.36 6.75Q44.73 6.88 45.21 7.18L45.21 7.18L46.81 6.77L47.04 6.82L47.04 7.57L45.75 7.40L45.66 7.63L45.66 7.63Q45.88 7.94 45.98 8.19L45.98 8.19L45.98 8.19Q46.07 8.44 46.07 8.79L46.07 8.79L46.07 8.79Q46.07 9.21 45.74 9.63L45.74 9.63L45.74 9.63Q45.40 10.05 44.84 10.32L44.84 10.32L44.84 10.32Q44.27 10.60 43.61 10.60L43.61 10.60L43.61 10.60Q43.24 10.60 42.81 10.47L42.81 10.47L42.33 11.09L42.33 11.09Q42.33 11.32 42.59 11.47L42.59 11.47L42.59 11.47Q42.86 11.62 43.19 11.62L43.19 11.62L43.19 11.62Q44.38 11.62 44.95 11.63L44.95 11.63L44.95 11.63Q45.54 11.65 46.01 11.87L46.01 11.87L46.01 11.87Q46.48 12.10 46.75 12.42L46.75 12.42L46.75 12.42Q47.02 12.74 47.02 13.03L47.02 13.03L47.02 13.03Q47.02 13.49 46.77 13.90L46.77 13.90L44.19 15.54L44.19 15.54Q43.65 15.64 43.24 15.64L43.24 15.64ZM43.72 10.27L43.72 10.27Q44.28 10.27 44.53 9.82L44.53 9.82L44.53 9.82Q44.78 9.38 44.78 8.76L44.78 8.76L44.78 8.76Q44.78 8.13 44.47 7.62L44.47 7.62L44.47 7.62Q44.16 7.10 43.54 7.10L43.54 7.10L43.54 7.10Q42.98 7.10 42.72 7.54L42.72 7.54L42.72 7.54Q42.46 7.98 42.46 8.54L42.46 8.54L42.46 8.54Q42.46 9.20 42.79 9.73L42.79 9.73L42.79 9.73Q43.12 10.27 43.72 10.27L43.72 10.27ZM43.98 15.12L46.01 13.82L46.01 13.82Q46.01 13.55 45.78 13.30L45.78 13.30L45.78 13.30Q45.55 13.04 45.13 12.89L45.13 12.89L45.13 12.89Q44.71 12.73 44.15 12.73L44.15 12.73L42.79 12.77L42.05 13.56L42.05 13.56Q42.05 14.30 42.59 14.71L42.59 14.71L42.59 14.71Q43.12 15.12 43.98 15.12L43.98 15.12ZM50.72 12.71L50.72 12.71Q49.93 12.71 49.25 12.36L49.25 12.36L49.25 12.36Q48.58 12.00 48.18 11.35L48.18 11.35L48.18 11.35Q47.78 10.71 47.78 9.88L47.78 9.88L47.78 9.88Q47.78 8.85 48.22 8.11L48.22 8.11L48.22 8.11Q48.66 7.37 49.35 7L49.35 7L49.35 7Q50.04 6.63 50.76 6.63L50.76 6.63L50.76 6.63Q52.02 6.63 52.55 7.24L52.55 7.24L52.55 7.24Q53.07 7.85 53.07 8.83L53.07 8.83L52.91 9.15L49.14 9.15L49.14 9.21L49.14 9.21Q49.14 10.12 49.47 10.71L49.47 10.71L49.47 10.71Q49.81 11.29 50.32 11.57L50.32 11.57L50.32 11.57Q50.83 11.84 51.35 11.84L51.35 11.84L52.91 11.10L53.05 11.53L51.73 12.51L51.73 12.51Q51.21 12.71 50.72 12.71L50.72 12.71ZM49.19 8.78L51.50 8.78L51.67 8.41L51.67 8.41Q51.67 8.13 51.55 7.81L51.55 7.81L51.55 7.81Q51.43 7.48 51.19 7.25L51.19 7.25L51.19 7.25Q50.94 7.01 50.57 7.01L50.57 7.01L50.57 7.01Q50.08 7.01 49.77 7.36L49.77 7.36L49.77 7.36Q49.46 7.70 49.32 8.11L49.32 8.11L49.32 8.11Q49.18 8.53 49.19 8.71L49.19 8.71L49.19 8.78ZM54.11 12.61L54.11 12.33L55.06 12.10L55.17 10.90L55.17 8.75L55.06 7.78L54.10 7.52L54.10 7.25L56.49 6.62L56.63 6.79L56.52 7.98L56.63 8.04L56.63 8.04Q56.92 7.49 57.39 7.06L57.39 7.06L57.39 7.06Q57.86 6.63 58.41 6.63L58.41 6.63L58.41 6.63Q58.68 6.63 58.92 6.71L58.92 6.71L58.92 6.71Q59.16 6.79 59.27 6.92L59.27 6.92L59.38 7.40L58.75 8.22L58.19 7.88L58.19 7.88Q58.05 7.78 57.93 7.74L57.93 7.74L57.93 7.74Q57.80 7.70 57.60 7.70L57.60 7.70L57.60 7.70Q57.30 7.70 57.05 7.92L57.05 7.92L57.05 7.92Q56.81 8.15 56.66 8.46L56.66 8.46L56.66 8.46Q56.52 8.76 56.52 8.94L56.52 8.94L56.52 10.90L56.62 12.10L57.72 12.33L57.72 12.61L54.11 12.61Z"></path></g><!----><!----></svg>